<svg width="24" height="24" viewBox="0 0 24 24" fill="none" xmlns="http://www.w3.org/2000/svg">
<path d="M18.75 6.75H5.25C4.836 6.75 4.5 6.414 4.5 6C4.5 5.586 4.836 5.25 5.25 5.25H18.75C19.164 5.25 19.5 5.586 19.5 6C19.5 6.414 19.164 6.75 18.75 6.75Z" fill="white"/>
<path d="M5.25 11.25H14.25C14.664 11.25 15 11.586 15 12C15 12.414 14.664 12.75 14.25 12.75H5.25C4.836 12.75 4.5 12.414 4.5 12C4.5 11.586 4.836 11.25 5.25 11.25Z" fill="white"/>
<path d="M5.25 17.25H18.75C19.164 17.25 19.5 17.586 19.5 18C19.5 18.414 19.164 18.75 18.75 18.75H5.25C4.836 18.75 4.5 18.414 4.5 18C4.5 17.586 4.836 17.25 5.25 17.25Z" fill="white"/>
<path d="M19.2799 14.0302C19.1336 14.1769 18.9416 14.25 18.7496 14.25C18.5576 14.25 18.3656 14.1769 18.2194 14.0302L16.7194 12.5303C16.4265 12.2374 16.4265 11.7626 16.7194 11.4697L18.2194 9.96975C18.5119 9.67687 18.9874 9.67687 19.2799 9.96975C19.5727 10.2626 19.5727 10.7374 19.2799 11.0302L18.3105 12L19.2799 12.9697C19.5727 13.2626 19.5727 13.7374 19.2799 14.0302Z" fill="white"/>
</svg>
