<svg width="24" height="24" viewBox="0 0 24 24" fill="none" xmlns="http://www.w3.org/2000/svg">
<path d="M18.9098 12.29H5.92982C5.45982 12.29 5.06982 12.84 5.06982 13.53V22.3C5.06982 22.98 5.44982 23.54 5.92982 23.54H18.9098C19.3798 23.54 19.7698 22.99 19.7698 22.3V13.53C19.7698 12.85 19.3898 12.29 18.9098 12.29ZM13.2298 12.85V13.54H18.8998V22.28H13.2298V22.84H11.4998V22.28H5.92982V13.54H11.4998V12.85H13.2298Z" fill="white"/>
<path d="M8.70924 6.68928C8.21467 6.46928 7.78254 6.15028 7.5076 5.81426C7.29045 5.54196 7.24284 5.33718 7.28149 5.25348C7.2921 5.20462 7.3418 5.16425 7.40893 5.1379C7.68591 4.9934 8.37673 4.9695 9.22566 5.34834C10.2692 5.82062 10.7456 6.54833 10.6534 6.78415L10.7422 6.75227C10.7044 6.54962 10.6967 6.30235 10.7408 6.00494C10.7722 5.76616 10.8469 5.51634 10.9259 5.24696C10.5805 4.90585 10.1343 4.60427 9.60278 4.36601C8.094 3.6801 6.68052 3.87448 6.32379 4.81008C6.1331 5.31101 6.27255 5.8939 6.73191 6.46441C7.07781 6.89772 7.58728 7.28468 8.17873 7.57689L9.98514 6.98691C9.6478 6.98526 9.20593 6.89951 8.71348 6.66974L8.70924 6.68928Z" fill="white"/>
<path d="M10.7386 6.0147C10.6945 6.31211 10.7022 6.55938 10.74 6.76203L11.732 6.43516C11.7294 6.11736 11.8589 5.52127 12.2883 4.81636C12.8511 3.87436 13.4569 3.53522 13.6392 3.54412C13.7127 3.72382 13.6793 4.44311 13.1165 5.38511C12.9088 5.72886 12.6964 5.99995 12.501 6.19287L14.1753 5.64581C14.4365 5.14996 14.6076 4.64478 14.6662 4.18677C14.8037 3.22402 14.4242 2.80389 14.1837 2.63908C13.3382 2.05631 12.1517 2.99586 11.4156 4.21744C11.2079 4.56118 11.0393 4.91342 10.9238 5.25672C10.8371 5.5142 10.7722 5.76615 10.7386 6.0147Z" fill="white"/>
<path d="M6.22303 11.9617L18.3764 8.02181C18.8832 7.85561 19.1529 7.32067 18.9965 6.81596L18.4945 5.26403C18.3283 4.7572 17.7836 4.48537 17.2886 4.64392L14.1848 5.64792L12.5105 6.19498L11.7513 6.43939L10.7593 6.76626L10.6705 6.79814L10.0001 7.01068L8.1937 7.60066L5.14506 8.58596C4.63823 8.75216 4.36853 9.2871 4.52496 9.79181L5.02696 11.3437C5.19316 11.8506 5.73787 12.1224 6.23281 11.9638L6.22303 11.9617ZM5.39628 9.40803L10.6044 7.715L10.4888 7.35219L12.1295 6.81831L12.2451 7.18112L17.5398 5.46598C17.5398 5.46598 17.6397 5.47744 17.6605 5.5229L18.1625 7.07483C18.1625 7.07483 18.1511 7.17467 18.1056 7.1955L12.8109 8.91063L12.9154 9.23011L11.2747 9.76399L11.1701 9.44451L5.96204 11.1375C5.96204 11.1375 5.8622 11.1261 5.84137 11.0806L5.33937 9.52869C5.33937 9.52869 5.35083 9.42885 5.39628 9.40803Z" fill="white"/>
<path d="M11.1684 9.45433L11.273 9.77381L12.9137 9.23993L12.8091 8.92045L12.2455 7.18117L12.1299 6.81835L10.4794 7.35011L10.6048 7.71505L11.1684 9.45433Z" fill="white"/>
<path d="M11.5098 13.54V22.28V22.84H13.2298V22.28V13.54V12.85H11.5098V13.54Z" fill="white"/>
</svg>
