<?xml version="1.0" encoding="UTF-8"?>
<svg id="_x2014_ÎÓÈ_x5F_1" xmlns="http://www.w3.org/2000/svg" version="1.1" viewBox="0 0 24 24">
  <!-- Generator: Adobe Illustrator 29.5.1, SVG Export Plug-In . SVG Version: 2.1.0 Build 141)  -->
  <defs>
    <style>
      .st0 {
        fill: #fff;
      }
    </style>
  </defs>
  <path class="st0" d="M18.91,12.29H5.93c-.47,0-.86.55-.86,1.24v8.77c0,.68.38,1.24.86,1.24h12.98c.47,0,.86-.55.86-1.24v-8.77c0-.68-.38-1.24-.86-1.24ZM13.23,12.85v.69h5.67v8.74h-5.67v.56h-1.73v-.56h-5.57v-8.74h5.57v-.69h1.73Z"/>
  <path class="st0" d="M9.97,9.09c-.4-.36-.72-.8-.87-1.2-.13-.33-.1-.53-.05-.6.03-.04.08-.06.16-.08.31-.06.98.13,1.66.76.85.77,1.08,1.6.92,1.8,0,0,0,0,0,0h.1c.03-.2.09-.44.22-.71.11-.22.24-.44.41-.66-.23-.43-.56-.86-.99-1.25-1.23-1.11-2.63-1.36-3.26-.58-.34.42-.38,1.02-.12,1.7.2.52.56,1.05,1.03,1.5h1.9c-.32-.11-.71-.33-1.12-.69Z"/>
  <path class="st0" d="M12.11,9.06c-.13.27-.2.51-.22.71h1.04c.1-.31.4-.83,1.02-1.38.82-.72,1.5-.86,1.68-.8.02.19-.24.87-1.06,1.59-.3.27-.59.45-.84.58h1.76c.4-.4.72-.83.92-1.25.42-.88.19-1.39.01-1.62-.63-.81-2.04-.28-3.12.66-.3.26-.57.55-.79.84-.16.22-.3.44-.41.66Z"/>
  <path class="st0" d="M6,13.34l12.77-.04c.53,0,.96-.43.96-.96v-1.63c0-.53-.44-.96-.97-.96h-3.27s-1.76.02-1.76.02h-.8s-1.04,0-1.04,0h-.1s-.7,0-.7,0h-1.9s-3.2.02-3.2.02c-.53,0-.96.43-.96.96v1.63c0,.53.44.96.97.96ZM5.99,10.66l5.47-.02v-.38s1.73,0,1.73,0v.38s5.57-.02,5.57-.02c.05,0,.1.04.1.09v1.63c0,.05-.04.1-.09.1l-5.57.02v.34s-1.73,0-1.73,0v-.34s-5.48.02-5.48.02c-.05,0-.1-.04-.1-.09v-1.63c0-.05.04-.1.09-.1Z"/>
  <polygon class="st0" points="11.47 12.46 11.47 12.8 13.2 12.79 13.2 12.46 13.19 10.63 13.19 10.25 11.46 10.25 11.47 10.64 11.47 12.46"/>
  <polygon class="st0" points="11.51 13.54 11.51 22.28 11.51 22.84 13.23 22.84 13.23 22.28 13.23 13.54 13.23 12.85 11.51 12.85 11.51 13.54"/>
  <g>
    <path class="st0" d="M-7.24,12.29h-12.98c-.47,0-.86.55-.86,1.24v8.77c0,.68.38,1.24.86,1.24H-7.24c.47,0,.86-.55.86-1.24v-8.77c0-.68-.38-1.24-.86-1.24ZM-12.92,12.85v.69h5.67v8.74h-5.67v.56h-1.73v-.56h-5.57v-8.74h5.57v-.69h1.73Z"/>
    <path class="st0" d="M-18.34,5.66c-.53-.11-1.02-.33-1.36-.6-.27-.22-.36-.41-.34-.5,0-.05.04-.1.1-.14.24-.2.91-.37,1.82-.18,1.12.24,1.74.85,1.7,1.1,0,0,0,0,0,0l.08-.05c-.08-.19-.14-.43-.16-.73-.02-.24,0-.5.02-.78-.41-.26-.91-.46-1.48-.58-1.62-.35-2.96.14-3.11,1.13-.08.53.18,1.07.75,1.53.43.35,1.01.62,1.65.78l1.64-.96c-.33.07-.78.08-1.31-.04Z"/>
    <path class="st0" d="M-16.5,4.57c.02.3.08.54.16.73l.9-.53c-.07-.31-.07-.92.2-1.7.35-1.04.87-1.5,1.05-1.53.11.16.23.87-.12,1.91-.13.38-.28.69-.43.92l1.52-.89c.15-.54.21-1.07.17-1.53-.07-.97-.53-1.3-.8-1.41-.95-.39-1.91.78-2.37,2.13-.13.38-.22.76-.26,1.12-.03.27-.04.53-.02.78Z"/>
    <path class="st0" d="M-19.65,11.34l11.04-6.43c.46-.27.61-.85.35-1.31l-.82-1.41c-.27-.46-.86-.61-1.31-.35l-2.82,1.64-1.52.89-.69.4-.9.53-.08.05-.61.35-1.64.96-2.77,1.61c-.46.27-.61.85-.35,1.31l.82,1.41c.27.46.86.61,1.31.35ZM-21.01,9.02l4.73-2.76-.19-.33,1.49-.87.19.33,4.81-2.8s.1-.01.13.03l.82,1.41s.01.1-.03.13l-4.81,2.8.17.29-1.49.87-.17-.29-4.73,2.76s-.1.01-.13-.03l-.82-1.41s-.01-.1.03-.13Z"/>
    <polygon class="st0" points="-15.36 7.84 -15.19 8.13 -13.7 7.26 -13.86 6.97 -14.78 5.39 -14.98 5.06 -16.47 5.93 -16.28 6.26 -15.36 7.84"/>
    <polygon class="st0" points="-14.65 13.54 -14.65 22.28 -14.65 22.84 -12.92 22.84 -12.92 22.28 -12.92 13.54 -12.92 12.85 -14.65 12.85 -14.65 13.54"/>
  </g>
</svg>