<?xml version="1.0" encoding="UTF-8"?>
<svg xmlns="http://www.w3.org/2000/svg" version="1.1" viewBox="0 0 24 20.85">
  <!-- Generator: Adobe Illustrator 29.5.1, SVG Export Plug-In . SVG Version: 2.1.0 Build 141)  -->
  <defs>
    <style>
      .st0 {
        fill: #002831;
      }

      .st1 {
        fill: #fff;
      }
    </style>
  </defs>
  <g id="BG">
    <rect class="st0" x="-4018.06" y="-1332.35" width="2500" height="2500"/>
  </g>
  <g id="Logo">
    <g>
      <path class="st1" d="M12.89,3.86v-.82c-2.85,0-5.17,2.32-5.17,5.17h.82c0-2.4,1.95-4.34,4.34-4.34Z"/>
      <path class="st1" d="M17.14,13.36c-.41-.2-.76-.35-1.01-.44-.97.68-2.16,1.08-3.43,1.08-3.3,0-5.99-2.69-5.99-5.99s2.69-5.99,5.99-5.99c3.01,0,5.5,2.22,5.93,5.11.04.03.08.05.11.08.18.13.79.59.95.99.07.16.09.33.09.47.1.06.21.12.33.18.03-.28.05-.56.05-.84,0-1.01-.2-1.99-.59-2.91-.38-.89-.91-1.69-1.6-2.37-.69-.69-1.48-1.22-2.37-1.6-.92-.39-1.9-.59-2.91-.59s-1.99.2-2.91.59c-.89.38-1.69.91-2.37,1.6-.69.69-1.22,1.48-1.6,2.37-.39.92-.59,1.9-.59,2.91s.2,1.99.59,2.91c.3.7.69,1.34,1.18,1.92l-1.47,1.47-.44-.44L.19,18.74l1.76,1.76,4.89-4.89-.44-.44,1.47-1.47c.58.49,1.22.89,1.92,1.18.92.39,1.9.59,2.91.59s1.99-.2,2.91-.59c.75-.32,1.43-.74,2.03-1.28-.15-.08-.31-.16-.49-.25Z"/>
      <path class="st1" d="M23.63,11.65c-.03-.95-1.3-1.55-1.73-1.6-.43-.05-.68.22-.92.15s-1.87-.91-2.01-1.07c-.05-.05.03-.43-.04-.62-.07-.18-1.21-1.24-2-1.11-1.83.28-3.88,3.1-3.98,4.26-.09,1.16.96,1.31,1.6,1,.64-.31.86-.68,1.26-.68.4,0,3.09,1.23,3.31,1.67.23.44-.19,2.61.46,3.29.65.67,1.48.27,1.99-.29.86-.94,2.1-3.87,2.06-4.98ZM17.22,9.51l-.5-.28-.41.35-.41-.3.4-.33-.46-.28.35-.35.49.3.36-.3.41.21-.33.31.53.31-.43.37ZM20.42,11.17c.02-.14.21-.24.44-.21.22.03.39.17.37.31-.02.14-.21.24-.44.21s-.39-.17-.37-.31ZM20.92,12.33c-.22-.03-.39-.17-.37-.31s.21-.24.44-.21c.22.03.39.17.37.31s-.21.24-.44.21ZM21.52,11.09c.02-.14.21-.24.44-.21.22.03.39.17.37.31-.02.14-.21.24-.44.21-.22-.03-.39-.17-.37-.31ZM22.08,12.21c-.22-.03-.39-.17-.37-.31s.21-.24.44-.21.39.17.37.31c-.02.14-.21.24-.44.21Z"/>
    </g>
  </g>
</svg>