<svg width="24" height="24" viewBox="0 0 24 24" fill="none" xmlns="http://www.w3.org/2000/svg">
<path d="M18.75 6.75H5.25C4.836 6.75 4.5 6.414 4.5 6C4.5 5.586 4.836 5.25 5.25 5.25H18.75C19.164 5.25 19.5 5.586 19.5 6C19.5 6.414 19.164 6.75 18.75 6.75Z" fill="white"/>
<path d="M5.57143 11H18.4286C19.02 11 19.5 11.336 19.5 11.75C19.5 12.164 19.02 12.5 18.4286 12.5H5.57143C4.98 12.5 4.5 12.164 4.5 11.75C4.5 11.336 4.98 11 5.57143 11Z" fill="white"/>
<path d="M5.25 17.25H18.75C19.164 17.25 19.5 17.586 19.5 18C19.5 18.414 19.164 18.75 18.75 18.75H5.25C4.836 18.75 4.5 18.414 4.5 18C4.5 17.586 4.836 17.25 5.25 17.25Z" fill="white"/>
</svg>
