<?xml version="1.0" encoding="UTF-8"?>
<svg xmlns="http://www.w3.org/2000/svg" version="1.1" viewBox="0 0 24 20.85">
  <!-- Generator: Adobe Illustrator 29.5.1, SVG Export Plug-In . SVG Version: 2.1.0 Build 141)  -->
  <defs>
    <style>
      .st0 {
        fill: #002831;
      }

      .st1 {
        fill: #fff;
      }
    </style>
  </defs>
  <g id="BG">
    <rect class="st0" x="-4045.66" y="-1333.26" width="2500" height="2500"/>
  </g>
  <g id="Logo">
    <path class="st1" d="M22.94,8.99c-.07-1.96-2.68-3.19-3.56-3.3-.88-.11-1.41.45-1.9.3s-3.85-1.88-4.15-2.21c-.1-.11.07-.89-.09-1.27-.15-.38-2.49-2.55-4.12-2.29C5.36.79,1.12,6.59.93,8.97c-.19,2.38,1.97,2.7,3.29,2.06,1.32-.64,1.77-1.39,2.6-1.4.83,0,6.36,2.53,6.82,3.45.47.91-.39,5.38.94,6.77,1.33,1.39,3.05.55,4.1-.6,1.77-1.94,4.32-7.97,4.24-10.25ZM9.74,4.59l-1.03-.58-.84.72-.85-.62.82-.67-.94-.58.71-.73,1.02.62.74-.61.85.44-.68.63,1.09.63-.88.76ZM16.33,7.99c.04-.29.44-.48.9-.43.46.06.8.34.76.64-.04.29-.44.48-.9.43s-.8-.34-.76-.64ZM17.35,10.38c-.46-.06-.8-.34-.76-.64s.44-.48.9-.43c.46.06.8.34.76.64s-.44.48-.9.43ZM18.59,7.82c.04-.29.44-.48.9-.43.46.06.8.34.76.64-.04.29-.44.48-.9.43-.46-.06-.8-.34-.76-.64ZM19.75,10.14c-.46-.06-.8-.34-.76-.64s.44-.48.9-.43.8.34.76.64c-.04.29-.44.48-.9.43Z"/>
  </g>
</svg>