<svg id="Medal_B" height="512" viewBox="0 0 100 100" width="512" xmlns="http://www.w3.org/2000/svg">
  <path d="m39.645 77.632c-1.336-1.127-2.718-2.292-3.818-2.749-1.207-.5-2.999-.664-4.896-.836-3.603-.328-7.686-.7-10.649-3.663-.637-.637-1.149-1.329-1.572-2.054l-9.014 16.62c-.259.477-.24 1.056.049 1.515.289.458.791.728 1.345.699l13.809-.691 6.953 11.952c.269.462.763.746 1.296.746h.022c.542-.008 1.038-.308 1.296-.785l9.499-17.514c-1.615-.963-3.043-2.162-4.32-3.239z" fill="white"/>
  <path d="m81.29 68.33c-.423.725-.935 1.416-1.572 2.054-2.963 2.963-7.046 3.335-10.648 3.663-1.897.173-3.689.336-4.896.836-1.1.456-2.482 1.622-3.818 2.749-1.277 1.077-2.705 2.277-4.321 3.239l9.499 17.513c.258.477.754.776 1.296.785h.022c.534 0 1.028-.284 1.296-.746l6.953-11.952 13.809.691c.553.03 1.056-.24 1.345-.699s.308-1.038.049-1.515l-9.014-16.619z" fill="white"/>
  <path d="m58.745 75.721c1.55-1.307 3.014-2.542 4.472-3.146 1.558-.646 3.534-.826 5.626-1.017 3.335-.304 6.784-.618 9.107-2.941 2.324-2.323 2.638-5.772 2.942-9.108.19-2.092.371-4.068 1.017-5.626.604-1.458 1.839-2.922 3.147-4.473 2.096-2.486 4.473-5.303 4.473-8.744s-2.376-6.259-4.473-8.745c-1.307-1.55-2.542-3.014-3.146-4.472-.646-1.558-.826-3.534-1.017-5.626-.304-3.335-.618-6.785-2.941-9.108-2.323-2.324-5.772-2.638-9.108-2.942-2.092-.19-4.069-.371-5.626-1.017-1.458-.604-2.922-1.839-4.472-3.146-2.486-2.097-5.303-4.473-8.745-4.473s-6.259 2.376-8.744 4.473c-1.55 1.307-3.014 2.542-4.472 3.146-1.558.646-3.534.826-5.626 1.017-3.336.304-6.785.618-9.108 2.941s-2.638 5.772-2.941 9.108c-.191 2.092-.371 4.069-1.017 5.626-.604 1.458-1.839 2.922-3.146 4.472-2.096 2.486-4.473 5.303-4.473 8.745s2.376 6.258 4.473 8.744c1.307 1.55 2.542 3.014 3.146 4.472.646 1.558.826 3.534 1.017 5.626.304 3.335.618 6.785 2.941 9.108s5.772 2.638 9.107 2.941c2.092.191 4.069.371 5.627 1.017 1.458.604 2.922 1.839 4.473 3.147 2.485 2.096 5.303 4.472 8.744 4.472s6.259-2.376 8.745-4.473zm-32.481-35.056c0-13.088 10.648-23.736 23.736-23.736s23.736 10.648 23.736 23.736-10.648 23.736-23.736 23.736-23.736-10.648-23.736-23.736z" fill="white"/>
  <path d="m41.265 43.751-1.057 6.16c-.191 1.116.259 2.222 1.174 2.887.915.666 2.106.751 3.108.225l5.487-2.908 5.532 2.908c.436.229.907.342 1.376.342.609 0 1.215-.191 1.732-.567.916-.665 1.365-1.771 1.174-2.887l-1.071-6.117 4.476-4.363c.811-.79 1.097-1.949.747-3.025-.35-1.077-1.263-1.846-2.383-2.009l-6.148-.872-2.766-5.604c-.501-1.015-1.515-1.646-2.646-1.646s-2.146.63-2.647 1.646l-2.729 5.578-6.184.899c-1.12.163-2.033.932-2.383 2.009s-.063 2.236.747 3.025l4.461 4.32z" fill="white"/>
</svg>