<svg width="111" height="46" viewBox="0 0 111 46" fill="none" xmlns="http://www.w3.org/2000/svg">
<g filter="url(#filter0_d_13_554)">
<path d="M13.2664 4.1035C14.0828 1.653 16.3759 0 18.9588 0H100.099C104.194 0 107.086 4.01147 105.791 7.89649L97.1558 33.8165C96.3394 36.267 94.0464 37.9201 91.4634 37.9201H10.3232C6.22826 37.9201 3.33647 33.9086 4.63081 30.0236L13.2664 4.1035Z" fill="#89DD0E"/>
<path d="M18.959 1H100.099C103.511 1 105.921 4.34267 104.843 7.58008L96.207 33.5C95.5267 35.5419 93.6161 36.9197 91.4639 36.9199H10.3232C6.91088 36.9199 4.50074 33.5773 5.5791 30.3398L14.2148 4.41992C14.8739 2.44163 16.6882 1.0866 18.7578 1.00391L18.959 1Z" stroke="#D7FF93" stroke-width="2"/>
</g>
<path d="M32.7776 22.7637V11.9637H34.7576V16.3587H41.8376V11.9637H43.8176V22.7637H41.8376V18.3687H34.7576V22.7637H32.7776ZM47.1113 22.7637V11.9637H49.0763V22.7637H47.1113ZM54.4144 22.7637C54.0344 22.7637 53.6844 22.6687 53.3644 22.4787C53.0544 22.2887 52.8044 22.0387 52.6144 21.7287C52.4244 21.4087 52.3294 21.0587 52.3294 20.6787V14.0487C52.3294 13.6687 52.4244 13.3237 52.6144 13.0137C52.8044 12.6937 53.0544 12.4387 53.3644 12.2487C53.6844 12.0587 54.0344 11.9637 54.4144 11.9637H61.0294C61.4094 11.9637 61.7594 12.0587 62.0794 12.2487C62.3994 12.4387 62.6544 12.6937 62.8444 13.0137C63.0344 13.3237 63.1294 13.6687 63.1294 14.0487V14.8887H61.1344V14.1387C61.1344 14.0887 61.1144 14.0487 61.0744 14.0187C61.0344 13.9787 60.9894 13.9587 60.9394 13.9587H54.4894C54.4394 13.9587 54.3944 13.9787 54.3544 14.0187C54.3244 14.0487 54.3094 14.0887 54.3094 14.1387V20.5887C54.3094 20.6387 54.3244 20.6837 54.3544 20.7237C54.3944 20.7537 54.4394 20.7687 54.4894 20.7687H60.9394C60.9894 20.7687 61.0344 20.7537 61.0744 20.7237C61.1144 20.6837 61.1344 20.6387 61.1344 20.5887V18.6387H58.6894V16.6437H63.1294V20.6787C63.1294 21.0587 63.0344 21.4087 62.8444 21.7287C62.6544 22.0387 62.3994 22.2887 62.0794 22.4787C61.7594 22.6687 61.4094 22.7637 61.0294 22.7637H54.4144ZM66.5955 22.7637V11.9637H68.5755V16.3587H75.6555V11.9637H77.6355V22.7637H75.6555V18.3687H68.5755V22.7637H66.5955Z" fill="white"/>
<defs>
<filter id="filter0_d_13_554" x="0.318359" y="0" width="109.785" height="45.92" filterUnits="userSpaceOnUse" color-interpolation-filters="sRGB">
<feFlood flood-opacity="0" result="BackgroundImageFix"/>
<feColorMatrix in="SourceAlpha" type="matrix" values="0 0 0 0 0 0 0 0 0 0 0 0 0 0 0 0 0 0 127 0" result="hardAlpha"/>
<feOffset dy="4"/>
<feGaussianBlur stdDeviation="2"/>
<feComposite in2="hardAlpha" operator="out"/>
<feColorMatrix type="matrix" values="0 0 0 0 0 0 0 0 0 0 0 0 0 0 0 0 0 0 0.25 0"/>
<feBlend mode="normal" in2="BackgroundImageFix" result="effect1_dropShadow_13_554"/>
<feBlend mode="normal" in="SourceGraphic" in2="effect1_dropShadow_13_554" result="shape"/>
</filter>
</defs>
</svg>
