<svg width="111" height="46" viewBox="0 0 111 46" fill="none" xmlns="http://www.w3.org/2000/svg">
<g filter="url(#filter0_d_13_553)">
<path d="M97.1565 4.1035C96.34 1.653 94.047 0 91.4641 0H10.3239C6.22889 0 3.33711 4.01147 4.63145 7.89649L13.267 33.8165C14.0834 36.267 16.3765 37.9201 18.9594 37.9201H100.1C104.195 37.9201 107.086 33.9086 105.792 30.0236L97.1565 4.1035Z" fill="#BD1046"/>
<path d="M91.4639 1H10.3242C6.91186 1 4.50173 4.34267 5.58008 7.58008L14.2158 33.5C14.8961 35.5419 16.8067 36.9197 18.959 36.9199H100.1C103.512 36.9199 105.922 33.5773 104.844 30.3398L96.208 4.41992C95.5489 2.44163 93.7347 1.0866 91.665 1.00391L91.4639 1Z" stroke="#FF7FAE" stroke-width="2"/>
</g>
<path d="M33.6199 22.7637V11.9487H35.5999V20.7687H44.4199V22.7637H33.6199ZM49.1494 22.7637C48.7694 22.7637 48.4194 22.6687 48.0994 22.4787C47.7894 22.2887 47.5394 22.0387 47.3494 21.7287C47.1594 21.4087 47.0644 21.0587 47.0644 20.6787V14.0487C47.0644 13.6687 47.1594 13.3237 47.3494 13.0137C47.5394 12.6937 47.7894 12.4387 48.0994 12.2487C48.4194 12.0587 48.7694 11.9637 49.1494 11.9637H55.7794C56.1594 11.9637 56.5044 12.0587 56.8144 12.2487C57.1344 12.4387 57.3894 12.6937 57.5794 13.0137C57.7694 13.3237 57.8644 13.6687 57.8644 14.0487V20.6787C57.8644 21.0587 57.7694 21.4087 57.5794 21.7287C57.3894 22.0387 57.1344 22.2887 56.8144 22.4787C56.5044 22.6687 56.1594 22.7637 55.7794 22.7637H49.1494ZM49.2244 20.7687H55.6744C55.7244 20.7687 55.7694 20.7537 55.8094 20.7237C55.8494 20.6837 55.8694 20.6387 55.8694 20.5887V14.1387C55.8694 14.0887 55.8494 14.0487 55.8094 14.0187C55.7694 13.9787 55.7244 13.9587 55.6744 13.9587H49.2244C49.1744 13.9587 49.1294 13.9787 49.0894 14.0187C49.0594 14.0487 49.0444 14.0887 49.0444 14.1387V20.5887C49.0444 20.6387 49.0594 20.6837 49.0894 20.7237C49.1294 20.7537 49.1744 20.7687 49.2244 20.7687ZM64.4332 22.7637L60.5032 11.9637H62.6032L65.2132 19.0887L67.8232 11.9637H69.7582L72.3682 19.0887L74.9632 11.9637H77.0782L73.1482 22.7637H71.5882L68.7832 15.1137L65.9932 22.7637H64.4332Z" fill="white"/>
<defs>
<filter id="filter0_d_13_553" x="0.319336" y="0" width="109.785" height="45.92" filterUnits="userSpaceOnUse" color-interpolation-filters="sRGB">
<feFlood flood-opacity="0" result="BackgroundImageFix"/>
<feColorMatrix in="SourceAlpha" type="matrix" values="0 0 0 0 0 0 0 0 0 0 0 0 0 0 0 0 0 0 127 0" result="hardAlpha"/>
<feOffset dy="4"/>
<feGaussianBlur stdDeviation="2"/>
<feComposite in2="hardAlpha" operator="out"/>
<feColorMatrix type="matrix" values="0 0 0 0 0 0 0 0 0 0 0 0 0 0 0 0 0 0 0.25 0"/>
<feBlend mode="normal" in2="BackgroundImageFix" result="effect1_dropShadow_13_553"/>
<feBlend mode="normal" in="SourceGraphic" in2="effect1_dropShadow_13_553" result="shape"/>
</filter>
</defs>
</svg>
