<svg width="107" height="27" viewBox="0 0 107 27" fill="none" xmlns="http://www.w3.org/2000/svg">
<path d="M1.71484 11.0742L1.43457 10.9365L0.5 10.4785V3.50684L6.64551 0.5H27.1367L32.2568 3.00586L32.3613 3.05664H74.6445L74.749 3.00586L79.8691 0.5H100.36L106.5 3.50684V6.65039L105.57 7.10547L105.29 7.24316V14.0488L105.57 14.1865L106.5 14.6406V23.4951L100.36 26.5H63.5635L62.4629 25.9619L62.3594 25.9111H44.6465L44.543 25.9609L43.4385 26.5H6.64551L0.5 23.4951V21.9463L1.43457 21.4893L1.71484 21.3516V11.0742Z" fill="#4095FF" stroke="#1B3A62"/>
<path d="M36.82 15.9H38.02V17.256L36.628 18.06H33.472L32.08 17.256V10.344L33.472 9.54H36.628L38.02 10.344V11.7H36.82V10.62H33.28V16.98H36.82V15.9ZM43.5885 9.6L46.5885 18H45.4125L44.7045 16.008H40.9845L40.2765 18H39.1005L42.1005 9.6H43.5885ZM42.8325 10.788L41.3685 14.928H44.3205L42.8565 10.788H42.8325ZM48.9892 11.652V18H47.7892V9.6H48.8812L53.2252 15.948H53.2492V9.6H54.4492V18H53.3572L49.0132 11.652H48.9892ZM61.2334 15.9H62.4334V17.256L61.0414 18.06H57.8854L56.4934 17.256V10.344L57.8854 9.54H61.0414L62.4334 10.344V11.7H61.2334V10.62H57.6934V16.98H61.2334V15.9ZM65.5539 14.22V16.92H69.1419V18H64.3539V9.6H69.1419V10.68H65.5539V13.14H68.4219V14.22H65.5539ZM70.7027 18V9.6H71.9027V16.92H75.0107V18H70.7027Z" fill="white"/>
</svg>
