<svg width="151" height="199" viewBox="0 0 151 199" fill="none" xmlns="http://www.w3.org/2000/svg">
<path d="M1.94298 198.14L0.81343 198.069L4.08377 155.262C4.09402 155.128 4.16481 155.009 4.28299 154.915L134.141 52.0582L136.701 18.5501L137.831 18.6215L135.254 52.3531C135.243 52.4872 135.184 52.6182 135.066 52.7118L5.20767 155.569L1.9544 198.152L1.94298 198.14Z" fill="#4095FF"/>
<path d="M150.151 11.3652L138.807 20.8839C138.576 21.0778 138.22 21.0541 138.02 20.8565L127.627 10.5799C127.415 10.3707 127.443 10.0464 127.661 9.86334L139.005 0.34459C139.236 0.150769 139.592 0.174375 139.792 0.372002L150.185 10.6486C150.397 10.8579 150.369 11.1821 150.151 11.3652ZM138.453 19.7837L148.963 10.9649L139.334 1.44391L128.824 10.2628L138.453 19.7837Z" fill="#4095FF"/>
<path d="M138.666 15.3499L144.094 10.7951L139.121 5.87768L133.692 10.4325L138.666 15.3499Z" fill="#4095FF"/>
<path d="M39.7263 131.833L37.2473 129.239L22.4612 140.951L24.9401 143.544L39.7263 131.833Z" fill="#4095FF"/>
<path d="M40.4996 131.87L24.8599 144.258L21.6384 140.887L37.2781 128.5L40.4996 131.87ZM24.9709 142.805L38.9035 131.77L37.1671 129.953L23.2345 140.988L24.9709 142.805Z" fill="#4095FF"/>
<path d="M117.546 65.4487L115.067 62.855L100.281 74.5667L102.76 77.1604L117.546 65.4487Z" fill="#4095FF"/>
<path d="M118.332 65.4983L102.692 77.8861L99.4705 74.5155L115.11 62.1277L118.332 65.4983ZM102.803 76.4331L116.736 65.3975L114.999 63.5807L101.067 74.6163L102.803 76.4331Z" fill="#4095FF"/>
<path d="M51.1909 121.671L48.7119 119.077L45.8624 121.334L48.3413 123.928L51.1909 121.671Z" fill="#4095FF"/>
<path d="M51.9769 121.721L48.2738 124.654L45.0522 121.283L48.7553 118.35L51.9769 121.721ZM48.3979 123.19L50.3939 121.609L48.6575 119.792L46.6615 121.373L48.3979 123.19Z" fill="#4095FF"/>
</svg>
