<svg width="864" height="749" viewBox="0 0 864 749" fill="none" xmlns="http://www.w3.org/2000/svg">
<path d="M863.455 54.2574V655.109H707.622L645.509 557.054L395.742 560.627L311.91 561.831L131.439 564.412L62.6064 469.429V148.143L116.77 66.4112L124.824 54.2574H863.455Z" fill="#FF002B" fill-opacity="0.2" stroke="white" stroke-opacity="0.6" stroke-miterlimit="10"/>
<path opacity="0.2" d="M395.742 560.627L311.91 561.831L116.771 66.4112L124.825 54.2574H196.289L395.742 560.627Z" fill="black"/>
<path opacity="0.2" d="M863.455 568.026V655.109H804.127L525.902 54.2574H625.557L863.455 568.026Z" fill="black"/>
<path opacity="0.2" d="M863.455 422.057V496.913L658.486 54.2574H693.146L863.455 422.057Z" fill="black"/>
<path d="M832.414 634.745H676.21L613.952 537.55L98.6609 544.846L29.6665 450.697V132.229L92.0319 39.1696H832.414V634.745Z" stroke="white" stroke-opacity="0.6" stroke-miterlimit="10"/>
<path d="M0.645508 495.309L86.618 621.589L211.65 619.798L277.942 726.047H403.88" stroke="white" stroke-opacity="0.6" stroke-miterlimit="10"/>
<path d="M90.4979 611.417L5.1499 488.243L10.6599 478.895L93.6485 598.603L144.011 597.773L151.72 610.538L90.4979 611.417Z" fill="white" fill-opacity="0.6"/>
<path d="M848.036 666.575H659.2L601.231 571.681L529.569 572.708L529.507 562.069L604.07 561.001L662.063 655.933H841.295V478.895H848.036V666.575Z" fill="white" fill-opacity="0.6"/>
<path d="M738.08 13.6307H841.506V153.97" stroke="white" stroke-opacity="0.6" stroke-width="3" stroke-miterlimit="10"/>
<path d="M11.9565 268.901L4.09521 248.563V108.471L75.9535 0.0377502H201.843L210.293 12.4514H79.1081L11.9565 113.777V268.901Z" fill="white" fill-opacity="0.6"/>
<path d="M230.684 12.629H218.554L210.293 0.0377502H222.425L230.684 12.629Z" fill="white" fill-opacity="0.6"/>
<path d="M248.015 12.629H235.885L227.624 0.0377502H239.756L248.015 12.629Z" fill="white" fill-opacity="0.6"/>
<path d="M265.346 12.629H253.216L244.955 0.0377502H257.087L265.346 12.629Z" fill="white" fill-opacity="0.6"/>
<path d="M173.091 609.968H160.958L152.697 597.377H164.83L173.091 609.968Z" fill="white" fill-opacity="0.6"/>
<path d="M190.422 609.968H178.289L170.028 597.377H182.161L190.422 609.968Z" fill="white" fill-opacity="0.6"/>
<path d="M207.753 609.968H195.62L187.359 597.377H199.492L207.753 609.968Z" fill="white" fill-opacity="0.6"/>
<path d="M100.263 590.371L14.9146 471.391L20.4225 462.046L103.411 577.558L156.872 576.727L164.579 589.493L100.263 590.371Z" fill="white" fill-opacity="0.6"/>
<path d="M184.972 590.371H172.84L164.579 577.78H176.711L184.972 590.371Z" fill="white" fill-opacity="0.6"/>
<path d="M202.303 590.371H190.171L181.91 577.78H194.042L202.303 590.371Z" fill="white" fill-opacity="0.6"/>
<path d="M219.634 590.371H207.502L199.241 577.78H211.373L219.634 590.371Z" fill="white" fill-opacity="0.6"/>
<path d="M423 748C434.046 748 443 739.046 443 728C443 716.954 434.046 708 423 708C411.954 708 403 716.954 403 728C403 739.046 411.954 748 423 748Z" stroke="white" stroke-opacity="0.6" stroke-miterlimit="10"/>
</svg>
