<svg width="480" height="322" viewBox="0 0 480 322" fill="none" xmlns="http://www.w3.org/2000/svg">
<path d="M26.0859 148.133L25.9521 147.989L21.1064 142.773V74.6948L47.5801 46.1978H132.069L153.329 69.0835L153.478 69.2437H326.241L326.39 69.0835L347.65 46.1978H432.14L458.59 74.6948V108.265L453.768 113.458L453.634 113.601V169.719L453.768 169.863L458.59 175.053V260.101L432.14 288.574H280.83L276.046 283.423L275.897 283.263H203.823L203.675 283.422L198.867 288.574H47.5801L21.1064 260.101V240.906L25.9521 235.69L26.0859 235.546V148.133Z" fill="#163C5B" fill-opacity="0.2" stroke="#4095FF"/>
<path d="M343.853 34.4341L322.444 11.3884C322.306 11.2402 322.122 11.1414 321.916 11.1414H157.803C157.596 11.1414 157.413 11.2155 157.275 11.3884L135.866 34.4341C135.568 34.7553 135.568 35.2493 135.866 35.5704L157.275 58.6161C157.413 58.7644 157.596 58.8632 157.803 58.8632H321.916C322.122 58.8632 322.306 58.7891 322.444 58.6161L343.853 35.5704C344.151 35.2493 344.151 34.7553 343.853 34.4341Z" fill="#4095FF"/>
<path d="M286.968 11.3885L281.989 6.02846C281.851 5.88026 281.668 5.80615 281.461 5.80615H162.621C162.415 5.80615 162.231 5.88026 162.094 6.02846L157.114 11.3885C156.908 11.6108 156.839 11.9566 156.954 12.2531C157.068 12.5495 157.344 12.7471 157.642 12.7471H286.418C286.716 12.7471 286.991 12.5495 287.106 12.2531C287.221 11.9566 287.152 11.6108 286.945 11.3885H286.968Z" fill="#4095FF"/>
<path d="M145.871 28.8518H34.1214H33.8231L0.0229492 65.2607V101.694L11.4503 113.995V70.3491L43.5524 35.7928H140.937C141.144 35.7928 141.327 35.7187 141.465 35.5457L146.444 30.1857C146.651 29.9634 146.72 29.6176 146.605 29.3212C146.49 29.0248 146.215 28.8271 145.916 28.8271L145.871 28.8518Z" fill="#4095FF"/>
<path d="M436.464 300.585H43.2535C43.047 300.585 42.8634 300.51 42.7258 300.338L10.1648 265.287C10.0271 265.139 9.9353 264.941 9.9353 264.719V236.289C9.9353 236.066 10.0041 235.869 10.1648 235.72L14.9147 230.607V153.097L10.1648 147.983C10.0271 147.835 9.9353 147.638 9.9353 147.415V70.0774C9.9353 69.8551 10.0041 69.6575 10.1648 69.5093L42.7258 34.4589C42.8634 34.3107 43.047 34.2119 43.2535 34.2119H136.393V35.8175H43.5518L11.4268 70.3985V147.07L16.1767 152.183C16.3144 152.331 16.4062 152.528 16.4062 152.751V230.929C16.4062 231.151 16.3374 231.348 16.1767 231.497L11.4268 236.61V264.398L43.5518 298.979H436.165L468.29 264.398V70.3985L436.165 35.8175H343.324V34.2119H436.464C436.67 34.2119 436.854 34.286 436.992 34.4589L469.553 69.5093C469.69 69.6575 469.759 69.8551 469.759 70.0774V264.744C469.759 264.966 469.69 265.164 469.553 265.312L436.992 300.362C436.854 300.51 436.67 300.609 436.464 300.609V300.585Z" fill="#4095FF"/>
<path d="M405.165 305.92H315.582V304.314H404.844L409.594 299.201L410.649 300.337L405.67 305.697C405.532 305.846 405.349 305.944 405.142 305.944L405.165 305.92Z" fill="#4095FF"/>
<path d="M369.736 23.4917H344.999V25.0972H369.736V23.4917Z" fill="#4095FF"/>
<path d="M11.4268 158.111H9.9353V225.593H11.4268V158.111Z" fill="#4095FF"/>
<path d="M0.734619 112.069L10.6704 122.764V127.581L0.734619 116.885V112.069Z" fill="#4095FF"/>
<path d="M11.4273 129.532L0 117.231V110.142L11.4273 122.443V129.532ZM1.49152 116.564L9.93581 125.654V123.11L1.49152 114.02V116.564Z" fill="#4095FF"/>
<path d="M288.896 7.16464L284.146 2.05159H166.109V0.446045H284.444C284.651 0.446045 284.834 0.520147 284.972 0.693052L289.951 6.05311L288.896 7.18935V7.16464Z" fill="#4095FF"/>
<path d="M311.314 299.473C311.199 299.177 310.924 298.979 310.626 298.979H276.803L272.076 293.891C271.938 293.742 271.754 293.644 271.548 293.644H208.147C207.94 293.644 207.757 293.718 207.619 293.891L202.892 298.979H74.0708C73.7725 298.979 73.4972 299.177 73.3824 299.473C73.2677 299.769 73.3365 300.115 73.543 300.337L78.5224 305.698C78.6601 305.846 78.8437 305.945 79.0502 305.945H96.5583L101.308 311.058C101.446 311.206 101.629 311.305 101.836 311.305H172.993L182.676 321.753C182.814 321.901 182.998 322 183.204 322H239.377C239.583 322 239.767 321.926 239.905 321.753L249.611 311.305H257.895L247.982 321.975H254.568L264.48 311.305H272.764L262.851 321.975H269.437L279.35 311.305H287.633L277.72 321.975H284.306L294.219 311.305H300.713C300.919 311.305 301.103 311.23 301.241 311.058L311.176 300.362C311.383 300.14 311.452 299.794 311.337 299.498L311.314 299.473Z" fill="#4095FF"/>
<path d="M468.291 239.821L474.762 232.855V228.187L468.291 235.127V239.821Z" fill="#4095FF"/>
<path d="M468.291 222.011L474.762 215.046V210.377L468.291 217.318V222.011Z" fill="#4095FF"/>
<path d="M468.291 230.904L474.762 223.963V219.27L468.291 226.235V230.904Z" fill="#4095FF"/>
<path d="M479.512 90.9246L474.762 85.8116V67.8542C474.762 67.6319 474.693 67.4343 474.532 67.286L434.078 23.7387L433.848 23.5164H379.373L374.394 28.8764H336.647L343.118 35.842H436.166L468.291 70.423V112.587L463.541 117.7C463.403 117.848 463.311 118.046 463.311 118.268V165.126C463.311 165.348 463.38 165.546 463.541 165.694L468.291 170.807V211.094C468.291 211.415 468.474 211.711 468.75 211.835C468.841 211.884 468.933 211.884 469.025 211.884C469.209 211.884 469.415 211.81 469.553 211.637L474.532 206.277C474.67 206.129 474.762 205.931 474.762 205.709V178.785L479.512 173.672C479.649 173.524 479.741 173.326 479.741 173.104V91.4928C479.741 91.2705 479.672 91.0729 479.512 90.9246Z" fill="#4095FF"/>
</svg>
