<svg width="480" height="521" viewBox="0 0 480 521" fill="none" xmlns="http://www.w3.org/2000/svg">
<path d="M26.0859 347.133L25.9521 346.989L21.1064 341.773V273.695L47.5801 245.198H132.069L153.329 268.083L153.478 268.244H326.241L326.39 268.083L347.65 245.198H432.14L458.59 273.695V307.265L453.768 312.457L453.634 312.601V368.719L453.768 368.863L458.59 374.053V459.101L432.14 487.574H280.83L276.046 482.423L275.897 482.263H203.823L203.675 482.422L198.867 487.574H47.5801L21.1064 459.101V439.906L25.9521 434.69L26.0859 434.546V347.133Z" fill="#163C5B" fill-opacity="0.2" stroke="#4095FF"/>
<path d="M343.853 233.434L322.444 210.388C322.306 210.24 322.122 210.141 321.916 210.141H157.803C157.596 210.141 157.413 210.216 157.275 210.388L135.866 233.434C135.568 233.755 135.568 234.249 135.866 234.57L157.275 257.616C157.413 257.764 157.596 257.863 157.803 257.863H321.916C322.122 257.863 322.306 257.789 322.444 257.616L343.853 234.57C344.151 234.249 344.151 233.755 343.853 233.434Z" fill="#4095FF"/>
<path d="M257.943 198.14L256.813 198.069L260.084 155.262C260.094 155.128 260.165 155.009 260.283 154.915L390.141 52.0582L392.701 18.5501L393.831 18.6215L391.254 52.3531C391.243 52.4872 391.184 52.6182 391.066 52.7118L261.208 155.569L257.954 198.152L257.943 198.14Z" fill="#4095FF"/>
<path d="M286.968 210.388L281.989 205.028C281.851 204.88 281.668 204.806 281.461 204.806H162.621C162.415 204.806 162.231 204.88 162.094 205.028L157.114 210.388C156.908 210.611 156.839 210.956 156.954 211.253C157.068 211.549 157.344 211.747 157.642 211.747H286.418C286.716 211.747 286.991 211.549 287.106 211.253C287.221 210.956 287.152 210.611 286.945 210.388H286.968Z" fill="#4095FF"/>
<path d="M145.871 227.852H34.1214H33.8231L0.0229492 264.261V300.694L11.4503 312.995V269.349L43.5523 234.793H140.937C141.144 234.793 141.327 234.719 141.465 234.546L146.444 229.186C146.651 228.963 146.72 228.618 146.605 228.321C146.49 228.025 146.215 227.827 145.916 227.827L145.871 227.852Z" fill="#4095FF"/>
<path d="M436.464 499.584H43.2535C43.047 499.584 42.8634 499.51 42.7258 499.337L10.1648 464.287C10.0271 464.139 9.9353 463.941 9.9353 463.719V435.288C9.9353 435.066 10.0041 434.869 10.1648 434.72L14.9147 429.607V352.096L10.1648 346.983C10.0271 346.835 9.9353 346.638 9.9353 346.415V269.077C9.9353 268.855 10.0041 268.657 10.1648 268.509L42.7258 233.459C42.8634 233.311 43.047 233.212 43.2535 233.212H136.393V234.817H43.5518L11.4268 269.398V346.069L16.1767 351.182C16.3144 351.331 16.4062 351.528 16.4062 351.751V429.928C16.4062 430.151 16.3374 430.348 16.1767 430.497L11.4268 435.61V463.398L43.5518 497.979H436.165L468.29 463.398V269.398L436.165 234.817H343.324V233.212H436.464C436.67 233.212 436.854 233.286 436.992 233.459L469.553 268.509C469.69 268.657 469.759 268.855 469.759 269.077V463.744C469.759 463.966 469.69 464.164 469.553 464.312L436.992 499.362C436.854 499.51 436.67 499.609 436.464 499.609V499.584Z" fill="#4095FF"/>
<path d="M405.165 504.92H315.582V503.314H404.844L409.594 498.201L410.649 499.337L405.67 504.697C405.532 504.846 405.349 504.944 405.142 504.944L405.165 504.92Z" fill="#4095FF"/>
<path d="M369.736 222.492H344.999V224.097H369.736V222.492Z" fill="#4095FF"/>
<path d="M11.4268 357.111H9.9353V424.593H11.4268V357.111Z" fill="#4095FF"/>
<path d="M0.734619 311.069L10.6704 321.764V326.581L0.734619 315.885V311.069Z" fill="#4095FF"/>
<path d="M11.4273 328.532L0 316.231V309.142L11.4273 321.443V328.532ZM1.49152 315.564L9.93581 324.654V322.11L1.49152 313.02V315.564Z" fill="#4095FF"/>
<path d="M288.896 206.165L284.146 201.052H166.109V199.446H284.444C284.651 199.446 284.834 199.52 284.972 199.693L289.951 205.053L288.896 206.189V206.165Z" fill="#4095FF"/>
<path d="M311.314 498.473C311.199 498.177 310.924 497.979 310.626 497.979H276.803L272.076 492.891C271.938 492.742 271.754 492.644 271.548 492.644H208.147C207.94 492.644 207.757 492.718 207.619 492.891L202.892 497.979H74.0708C73.7725 497.979 73.4972 498.177 73.3824 498.473C73.2677 498.769 73.3365 499.115 73.543 499.337L78.5224 504.698C78.6601 504.846 78.8437 504.945 79.0502 504.945H96.5583L101.308 510.058C101.446 510.206 101.629 510.305 101.836 510.305H172.993L182.676 520.753C182.814 520.901 182.998 521 183.204 521H239.377C239.583 521 239.767 520.926 239.905 520.753L249.611 510.305H257.895L247.982 520.975H254.568L264.48 510.305H272.764L262.851 520.975H269.437L279.35 510.305H287.633L277.72 520.975H284.306L294.219 510.305H300.713C300.919 510.305 301.103 510.23 301.241 510.058L311.176 499.362C311.383 499.14 311.452 498.794 311.337 498.498L311.314 498.473Z" fill="#4095FF"/>
<path d="M406.151 11.3652L394.807 20.8839C394.576 21.0778 394.22 21.0541 394.02 20.8565L383.627 10.5799C383.415 10.3707 383.443 10.0464 383.661 9.86334L395.005 0.34459C395.236 0.150769 395.592 0.174375 395.792 0.372002L406.185 10.6486C406.397 10.8579 406.369 11.1821 406.151 11.3652ZM394.453 19.7837L404.963 10.9649L395.334 1.44391L384.824 10.2628L394.453 19.7837Z" fill="#4095FF"/>
<path d="M394.666 15.3499L400.094 10.7951L395.121 5.87768L389.692 10.4325L394.666 15.3499Z" fill="#4095FF"/>
<path d="M468.291 438.821L474.762 431.855V427.187L468.291 434.128V438.821Z" fill="#4095FF"/>
<path d="M468.291 421.012L474.762 414.046V409.378L468.291 416.318V421.012Z" fill="#4095FF"/>
<path d="M468.291 429.904L474.762 422.963V418.27L468.291 425.235V429.904Z" fill="#4095FF"/>
<path d="M479.512 289.925L474.762 284.812V266.854C474.762 266.632 474.693 266.434 474.532 266.286L434.078 222.739L433.848 222.516H379.373L374.394 227.877H336.647L343.118 234.842H436.166L468.291 269.423V311.587L463.541 316.7C463.403 316.849 463.311 317.046 463.311 317.268V364.126C463.311 364.348 463.38 364.546 463.541 364.694L468.291 369.807V410.094C468.291 410.415 468.474 410.711 468.75 410.835C468.841 410.884 468.933 410.884 469.025 410.884C469.209 410.884 469.415 410.81 469.553 410.637L474.532 405.277C474.67 405.129 474.762 404.931 474.762 404.709V377.785L479.512 372.672C479.649 372.524 479.741 372.326 479.741 372.104V290.493C479.741 290.271 479.672 290.073 479.512 289.925Z" fill="#4095FF"/>
<path d="M295.726 131.833L293.247 129.239L278.461 140.951L280.94 143.544L295.726 131.833Z" fill="#4095FF"/>
<path d="M296.5 131.87L280.86 144.258L277.638 140.887L293.278 128.5L296.5 131.87ZM280.971 142.805L294.904 131.77L293.167 129.953L279.235 140.988L280.971 142.805Z" fill="#4095FF"/>
<path d="M373.546 65.4487L371.067 62.855L356.281 74.5667L358.76 77.1604L373.546 65.4487Z" fill="#4095FF"/>
<path d="M374.332 65.4983L358.692 77.8861L355.47 74.5155L371.11 62.1277L374.332 65.4983ZM358.803 76.4331L372.736 65.3975L370.999 63.5807L357.067 74.6163L358.803 76.4331Z" fill="#4095FF"/>
<path d="M307.191 121.671L304.712 119.077L301.862 121.334L304.341 123.928L307.191 121.671Z" fill="#4095FF"/>
<path d="M307.977 121.721L304.274 124.654L301.052 121.283L304.755 118.35L307.977 121.721ZM304.398 123.19L306.394 121.609L304.657 119.792L302.661 121.373L304.398 123.19Z" fill="#4095FF"/>
</svg>
