<svg width="12" height="10" viewBox="0 0 12 10" fill="none" xmlns="http://www.w3.org/2000/svg">
<path d="M10.6875 1.53125H0.5625C0.252 1.53125 0 1.32125 0 1.0625C0 0.80375 0.252 0.59375 0.5625 0.59375H10.6875C10.998 0.59375 11.25 0.80375 11.25 1.0625C11.25 1.32125 10.998 1.53125 10.6875 1.53125Z" fill="white"/>
<path d="M0.803572 4.53125H10.4464C10.89 4.53125 11.25 4.74125 11.25 5C11.25 5.25875 10.89 5.46875 10.4464 5.46875H0.803572C0.360001 5.46875 0 5.25875 0 5C0 4.74125 0.360001 4.53125 0.803572 4.53125Z" fill="white"/>
<path d="M0.5625 8.46875H10.6875C10.998 8.46875 11.25 8.67875 11.25 8.9375C11.25 9.19625 10.998 9.40625 10.6875 9.40625H0.5625C0.252 9.40625 0 9.19625 0 8.9375C0 8.67875 0.252 8.46875 0.5625 8.46875Z" fill="white"/>
</svg>
