<svg width="346" height="212" viewBox="0 0 346 212" fill="none" xmlns="http://www.w3.org/2000/svg">
<path d="M344.52 15.4503V184.523H282.435L257.689 156.931L158.18 157.937L124.781 158.276L52.88 159.002L25.4568 132.275V41.8687L47.036 18.8703L50.2448 15.4503H344.52Z" fill="#FF002B" fill-opacity="0.2" stroke="white" stroke-opacity="0.6" stroke-miterlimit="10"/>
<path opacity="0.2" d="M158.18 157.937L124.781 158.276L47.036 18.8703L50.2448 15.4503H78.7168L158.18 157.937Z" fill="black"/>
<path opacity="0.2" d="M344.52 160.019V184.523H320.883L210.037 15.4503H249.74L344.52 160.019Z" fill="black"/>
<path opacity="0.2" d="M344.52 118.945V140.008L262.859 15.4503H276.668L344.52 118.945Z" fill="black"/>
<path d="M328.748 178.71H267.143L242.59 151.331L39.3664 153.387L12.156 126.866V37.1598L36.752 10.9466H328.748V178.71Z" stroke="white" stroke-opacity="0.6" stroke-miterlimit="10"/>
<path d="M0.7712 139.557L35.0232 175.091L84.8368 174.587L111.248 204.484H161.422" stroke="white" stroke-opacity="0.6" stroke-miterlimit="10"/>
<path d="M36.5688 172.228L2.5656 137.569L4.7608 134.938L37.824 168.623L57.8888 168.389L60.96 171.981L36.5688 172.228Z" fill="white" fill-opacity="0.6"/>
<path d="M338.377 187.749H263.143L240.048 161.047L211.498 161.336L211.473 158.342L241.179 158.042L264.284 184.755H335.691V134.938H338.377V187.749Z" fill="white" fill-opacity="0.6"/>
<path d="M294.57 4.01846H335.775V43.5082" stroke="white" stroke-opacity="0.6" stroke-width="3" stroke-miterlimit="10"/>
<path d="M5.2776 75.8485L2.1456 70.1255V30.7053L30.7744 0.193573H80.9296L84.296 3.68664H32.0312L5.2776 32.1985V75.8485Z" fill="white" fill-opacity="0.6"/>
<path d="M92.42 3.73659H87.5872L84.296 0.193573H89.1296L92.42 3.73659Z" fill="white" fill-opacity="0.6"/>
<path d="M99.3248 3.73659H94.492L91.2008 0.193573H96.0344L99.3248 3.73659Z" fill="white" fill-opacity="0.6"/>
<path d="M106.23 3.73659H101.397L98.1056 0.193573H102.939L106.23 3.73659Z" fill="white" fill-opacity="0.6"/>
<path d="M69.4744 171.821H64.6408L61.3496 168.278H66.1832L69.4744 171.821Z" fill="white" fill-opacity="0.6"/>
<path d="M76.3792 171.821H71.5456L68.2544 168.278H73.088L76.3792 171.821Z" fill="white" fill-opacity="0.6"/>
<path d="M83.284 171.821H78.4504L75.1592 168.278H79.9928L83.284 171.821Z" fill="white" fill-opacity="0.6"/>
<path d="M40.4592 166.306L6.456 132.827L8.6504 130.197L41.7136 162.701L63.0128 162.467L66.0832 166.059L40.4592 166.306Z" fill="white" fill-opacity="0.6"/>
<path d="M74.208 166.306H69.3744L66.0832 162.763H70.9168L74.208 166.306Z" fill="white" fill-opacity="0.6"/>
<path d="M81.1128 166.306H76.2792L72.988 162.763H77.8216L81.1128 166.306Z" fill="white" fill-opacity="0.6"/>
<path d="M88.0176 166.306H83.184L79.8928 162.763H84.7264L88.0176 166.306Z" fill="white" fill-opacity="0.6"/>
<path d="M167.118 211.156C170.455 211.156 173.16 208.14 173.16 204.42C173.16 200.699 170.455 197.683 167.118 197.683C163.782 197.683 161.077 200.699 161.077 204.42C161.077 208.14 163.782 211.156 167.118 211.156Z" stroke="white" stroke-opacity="0.6" stroke-miterlimit="10"/>
</svg>
