<svg width="135" height="34" viewBox="0 0 135 34" fill="none" xmlns="http://www.w3.org/2000/svg">
<path d="M2.56836 14.0878L2.28125 13.953L1.04199 13.3671V4.79675L8.85352 1.10925H34.6553L41.1152 4.15906L41.2168 4.20691H94.252L94.3535 4.15906L100.813 1.10925H126.615L134.42 4.79675V8.72839L133.188 9.31042L132.9 9.44617V17.5702L133.188 17.7059L134.42 18.287V29.1376L126.615 32.8231H80.335L78.9248 32.1571L78.8232 32.1093H56.6455L56.5449 32.1571L55.127 32.8231H8.85352L1.04199 29.1376V27.1385L2.28125 26.5536L2.56836 26.4188V14.0878Z" fill="#4095FF" fill-opacity="0.7" stroke="#1B3A62"/>
<path d="M39.606 12.46V21H38.206V12.46H35.42V11.2H42.392V12.46H39.606ZM47.4406 17.094H45.3266V21H43.9266V11.2H48.9526L50.5766 12.138V16.156L48.9526 17.094L51.2066 21H49.6526L47.4406 17.094ZM45.3266 12.46V15.834H49.1766V12.46H45.3266ZM55.2705 21V16.674L51.9805 11.2H53.5485L55.9565 15.372H55.9845L58.4065 11.2H59.9745L56.6705 16.688V21H55.2705ZM69.1318 11.2L72.6318 21H71.2598L70.4338 18.676H66.0938L65.2678 21H63.8958L67.3958 11.2H69.1318ZM68.2498 12.586L66.5418 17.416H69.9858L68.2778 12.586H68.2498ZM77.9527 17.36V16.1H80.9627V20.132L79.3387 21.07H75.6567L74.0327 20.132V12.068L75.6567 11.13H79.3387L80.9627 12.068V13.65H79.5627V12.39H75.4327V19.81H79.5627V17.36H77.9527ZM87.5959 11.2L91.0959 21H89.7239L88.8979 18.676H84.5579L83.7319 21H82.3599L85.8599 11.2H87.5959ZM86.7139 12.586L85.0059 17.416H88.4499L86.7419 12.586H86.7139ZM92.4968 21V11.2H93.8968V21H92.4968ZM97.6806 13.594V21H96.2806V11.2H97.5546L102.623 18.606H102.651V11.2H104.051V21H102.777L97.7086 13.594H97.6806Z" fill="white"/>
</svg>
