<svg version="1.2" xmlns="http://www.w3.org/2000/svg" viewBox="0 0 1550 285" width="1550" height="285">
	<title>evolution_logo-svg</title>
	<style>
		.s0 { fill: #ffffff } 
	</style>
	<g id="Layer">
		<g id="Layer">
			<g id="Layer">
				<path id="Layer" class="s0" d="m264.6 30.1h163.1v36.9h-120.7v53.9h80.4v37h-80.4v60.2h124.4v36.9h-166.8z"/>
				<path id="Layer" class="s0" d="m427.7 95.2h43.4l37.9 111.4 35.2-111.4h42.1l-58.3 159.8h-38.9z"/>
				<path id="Layer" fill-rule="evenodd" class="s0" d="m587.6 175.5c0-48.9 33.9-83.3 82.4-83.3 48.1 0 82.1 34.6 82.1 83.3 0 48-34.6 82.6-83.1 82.6-48.1 0-81.4-33.9-81.4-82.6zm121.8 1v-1.4c0-30.5-14.9-48.8-39.3-48.8-24.8 0-39.7 18.3-39.7 48.8v1.4c0 29.8 14.5 47.4 39 47.4 24.8 0 40-17.7 40-47.4z"/>
				<path id="Layer" class="s0" d="m779.2 27h42.4v228h-42.4z"/>
				<path id="Layer" class="s0" d="m853.7 190.9v-95.7h42.1v93.4c0 21.3 10.1 33.8 29.1 33.8 22.1 0 31.3-18.6 31.3-46.1v-81.1h42v159.8h-42v-22.7c-8.5 16.6-23.1 25.8-43.8 25.8-36.2 0-58.7-25.8-58.7-67.2z"/>
				<path id="Layer" class="s0" d="m1044.6 212.6v-83.6h-22.7v-33.8h22.7v-30.3l41-23v53.1h31.5v33.9h-31.9v79.5c0 7.8 3.8 11.2 11.6 11.5h18.6v35h-32.5c-30.9-1.6-37.6-15.7-38.3-42.3z"/>
				<path id="Layer" class="s0" d="m1144.3 30.7h43.7v41h-43.7zm0.6 64.5h42.4v159.8h-42.4z"/>
				<path id="Layer" fill-rule="evenodd" class="s0" d="m1214.5 175.5c0-48.9 33.8-83.3 82.3-83.3 48.1 0 82.1 34.6 82.1 83.3 0 48-34.6 82.6-83.1 82.6-48.1 0-81.3-33.9-81.3-82.6zm121.6 1v-1.4c0-30.5-14.9-48.8-39.3-48.8-24.8 0-39.7 18.3-39.7 48.8v1.4c0 29.8 14.5 47.4 38.9 47.4 24.8 0 40.1-17.7 40.1-47.4z"/>
				<path id="Layer" class="s0" d="m1405.7 95.2h42v26c8.4-18.6 24.1-29.5 46.7-29.5 35 0 55.6 23.4 55.6 67.4v95.9h-42v-93.4c0-22.3-8.5-33.8-28.2-33.8-19.9 0-32.2 16.2-32.2 46v81.3h-42.1z"/>
			</g>
		</g>
		<g id="Layer">
			<g id="Layer">
				<g id="Layer">
					<path id="Layer" class="s0" d="m165.7 50.8c-38.4-50.4-107.9-64.7-165.7-33.8 22.6 50.7 39.4 110.3 150.7 113.7 13 0.4 27.4 0 43.1-1.2-2.2-31.9-12.6-58.3-28.1-78.7z"/>
					<path id="Layer" class="s0" d="m145.2 154.5c-67 3.4-98.3 27.7-117.9 57.8-11.6 17.7-19 37.3-27.3 55.7 81.1 43.3 185.9-2.3 193.8-112.6-18-1.4-34.2-1.6-48.6-0.9z"/>
				</g>
			</g>
		</g>
	</g>
</svg>