<?xml version="1.0" encoding="utf-8"?>
<svg xmlns="http://www.w3.org/2000/svg" fill="none" height="90" viewBox="0 0 150 90" width="150">
<path d="M61.8314 39.1974C60.7955 39.1974 60.0435 39.4284 59.575 39.8771C59.1067 40.3322 58.757 41.2493 58.5392 42.6282C58.4733 42.9119 58.2555 43.0504 57.8795 43.0504C57.6618 43.0504 57.4837 43.0042 57.3649 42.9119C57.4243 42.1268 57.4771 41.3614 57.5034 40.6028C57.5365 39.8506 57.5628 39.204 57.5959 38.6763C57.6288 38.3332 57.6948 38.0429 57.8069 37.8054C57.9191 37.5679 58.1302 37.4558 58.4403 37.4558H73.0734C73.1328 37.5811 73.1658 37.6933 73.1658 37.7856C73.1658 37.8516 73.1526 37.9176 73.1196 37.9968C73.0866 38.0759 72.9943 38.2276 72.8359 38.4454L62.0227 55.5724H69.1282C69.9726 55.5724 70.639 55.2755 71.1272 54.6751C71.6154 54.0813 72.031 53.1709 72.374 51.9438C72.4665 51.627 72.704 51.4753 73.08 51.4753C73.1394 51.4753 73.2384 51.4885 73.3637 51.5215C73.4891 51.5545 73.5814 51.5875 73.6473 51.6138L73.179 56.9314C73.146 57.1821 73.08 57.3405 72.9678 57.3999C72.8558 57.4658 72.6908 57.4922 72.473 57.4922C72.2817 57.4922 72.0245 57.4856 71.6945 57.4658C71.3647 57.4527 71.0414 57.4262 70.7313 57.3933C70.2299 57.3602 69.6955 57.3405 69.1347 57.3206C68.5674 57.3074 68.0528 57.2943 67.5844 57.2943H56.7052C56.6721 57.2612 56.659 57.1689 56.659 57.0106C56.659 56.9512 56.6721 56.872 56.7052 56.773C56.7382 56.6807 56.8305 56.5223 56.9889 56.3047L67.9538 39.1777H61.8314L61.8314 39.1974Z" fill="white"/>
<path d="M79.341 41.7836C79.341 40.7478 79.1892 40.0485 78.8924 39.6923C78.5955 39.3294 77.9094 39.1051 76.8471 39.0127C76.4382 38.9533 76.2336 38.7488 76.2336 38.3991C76.2336 38.2078 76.2666 37.9901 76.326 37.7393C76.735 37.7393 77.2759 37.713 77.9489 37.6668C78.6219 37.6206 79.1958 37.548 79.6643 37.4557C80.357 37.3633 80.9573 37.2446 81.4786 37.0995C81.9931 36.9609 82.3824 36.8883 82.6331 36.8883C83.0751 36.8883 83.2929 37.1258 83.2929 37.5942V49.3575C83.2929 50.1426 83.339 50.8617 83.4314 51.5215C83.5237 52.1812 83.6953 52.7552 83.946 53.2368C84.1967 53.725 84.5596 54.101 85.028 54.365C85.4964 54.6288 86.0968 54.7674 86.8159 54.7674C87.601 54.7674 88.3663 54.6354 89.125 54.365C89.8771 54.101 90.5434 53.7052 91.124 53.1906C91.7046 52.676 92.1664 52.036 92.5095 51.2839C92.8525 50.5319 93.0241 49.6544 93.0241 48.6515V41.7836C93.0241 40.7808 92.8724 40.0881 92.5755 39.712C92.2786 39.336 91.5792 39.0985 90.484 39.0061C90.075 38.9467 89.8705 38.7422 89.8705 38.3925C89.8705 38.2012 89.9035 37.9835 89.9629 37.7328C90.3719 37.7328 90.9129 37.7064 91.5858 37.6602C92.2588 37.614 92.8459 37.5415 93.3474 37.4491C94.0467 37.3567 94.6536 37.238 95.1616 37.0929C95.6697 36.9542 96.0523 36.8817 96.303 36.8817C96.7451 36.8817 96.9693 37.1192 96.9693 37.5877V52.8805C96.9693 53.4149 97.0024 53.8437 97.0617 54.1737C97.1277 54.5035 97.253 54.7674 97.4378 54.9719C97.6291 55.1764 97.8864 55.3348 98.2163 55.4403C98.5461 55.5525 98.975 55.6184 99.5093 55.6514C99.9185 55.7174 100.123 55.9153 100.123 56.265C100.123 56.4563 100.09 56.6741 100.031 56.9248C99.4368 56.9248 98.8101 56.971 98.1503 57.0633C97.4906 57.1557 96.8573 57.2546 96.2569 57.347C95.6565 57.4393 95.1221 57.5383 94.6602 57.6307C94.1985 57.723 93.8751 57.7692 93.6838 57.7692C93.2418 57.7692 93.0175 57.5317 93.0175 57.0633V53.1576C92.9252 53.2499 92.6546 53.5534 92.2192 54.0549C91.7772 54.5563 91.2098 55.0907 90.5039 55.658C89.7979 56.2254 88.9799 56.7334 88.0562 57.1886C87.1326 57.6439 86.1364 57.8682 85.0676 57.8682C83.1543 57.8682 81.7161 57.3206 80.7595 56.2188C79.8028 55.1236 79.3212 53.5667 79.3212 51.5611V41.7836H79.341Z" fill="white"/>
<path d="M105.837 56.331C104.484 55.5459 103.811 54.4177 103.811 52.94C103.811 51.3698 104.847 50.0833 106.918 49.0804C106.041 48.546 105.341 47.8336 104.827 46.9363C104.312 46.039 104.049 44.9373 104.049 43.6178C104.049 42.7403 104.26 41.8959 104.682 41.0777C105.104 40.2597 105.678 39.5406 106.397 38.9137C107.116 38.287 107.941 37.7922 108.865 37.4294C109.788 37.0665 110.771 36.8884 111.807 36.8884C113.378 36.8884 114.631 37.0797 115.574 37.4557C116.517 37.8318 117.329 38.3002 118.022 38.8676L122.68 36.8422C123.022 37.0599 123.273 37.3502 123.432 37.7131C123.59 38.0759 123.67 38.4124 123.67 38.7224C123.67 39.4152 123.432 39.7582 122.963 39.7582L121.268 39.7121C120.674 39.7121 119.948 39.8044 119.104 39.9957C119.856 40.9656 120.232 42.1597 120.232 43.5715C120.232 44.5414 120.014 45.4386 119.572 46.2568C119.13 47.0748 118.536 47.7675 117.784 48.3481C117.032 48.9287 116.135 49.3839 115.099 49.7138C114.063 50.0437 112.968 50.2086 111.807 50.2086C111.148 50.2086 110.52 50.169 109.927 50.0899C109.333 50.0107 108.766 49.8787 108.231 49.6874C107.413 50.0634 106.853 50.4395 106.536 50.8156C106.219 51.1916 106.067 51.5545 106.067 51.8976C106.067 52.1483 106.146 52.3924 106.305 52.6299C106.463 52.8674 106.753 53.0719 107.175 53.2434C107.598 53.415 108.192 53.5601 108.963 53.6657C109.729 53.7778 110.712 53.8306 111.906 53.8306C113.318 53.8306 114.651 53.9427 115.905 54.1605C117.158 54.3782 118.266 54.7411 119.223 55.2425C120.179 55.7438 120.932 56.4036 121.479 57.2216C122.027 58.0398 122.304 59.0228 122.304 60.1839C122.304 61.4705 122.047 62.6316 121.526 63.6674C121.011 64.7032 120.284 65.5873 119.361 66.3262C118.437 67.0651 117.322 67.6258 116.023 68.0217C114.724 68.4109 113.298 68.6088 111.761 68.6088C108.811 68.6088 106.503 68.0745 104.84 67.0057C103.177 65.9369 102.347 64.2282 102.347 61.8794C102.347 61.1868 102.458 60.5534 102.676 59.9728C102.894 59.3922 103.171 58.8645 103.501 58.396C103.831 57.9276 104.207 57.5186 104.629 57.1755C105.058 56.8324 105.461 56.5487 105.837 56.331ZM106.964 56.8918C106.213 57.6109 105.79 58.5214 105.692 59.6231C105.658 59.8738 105.645 60.1245 105.645 60.3753V61.1736C105.678 61.8333 105.849 62.493 106.16 63.1527C106.47 63.8125 106.925 64.3931 107.526 64.8945C108.119 65.3959 108.858 65.8049 109.736 66.115C110.613 66.4317 111.635 66.5835 112.797 66.5835C114.96 66.5835 116.537 66.1018 117.527 65.1452C118.516 64.1885 119.012 63.0011 119.012 61.5892C119.012 60.9954 118.886 60.4413 118.636 59.9398C118.385 59.4384 117.963 59.003 117.362 58.6467C116.768 58.2839 115.984 58.0001 115.007 57.8023C114.037 57.5978 112.823 57.4988 111.385 57.4988C110.567 57.4988 109.775 57.4526 109.01 57.3602C108.244 57.2678 107.558 57.1096 106.964 56.8918ZM112.283 48.5659C113.443 48.5659 114.367 48.1897 115.06 47.4377C115.753 46.6856 116.095 45.6498 116.095 44.3303C116.095 43.6375 116.023 42.958 115.884 42.2851C115.746 41.6121 115.502 40.9986 115.152 40.451C114.809 39.9034 114.341 39.4547 113.766 39.1117C113.186 38.7686 112.453 38.5971 111.576 38.5971C110.475 38.5971 109.611 38.9599 108.963 39.6791C108.317 40.3982 108 41.3878 108 42.6413C108 43.3605 108.073 44.0796 108.212 44.7855C108.35 45.4914 108.587 46.1247 108.917 46.6922C109.248 47.2595 109.683 47.7148 110.237 48.0578C110.785 48.3877 111.464 48.5659 112.283 48.5659Z" fill="white"/>
<path d="M130.894 57.3141C130.352 57.3141 129.805 57.3207 129.251 57.3405C128.697 57.3536 128.189 57.3801 127.714 57.413C127.245 57.4461 126.836 57.479 126.493 57.5054C126.15 57.5384 125.926 57.5516 125.833 57.5516C125.833 57.5186 125.821 57.413 125.787 57.2217C125.754 57.0304 125.741 56.8919 125.741 56.7995C125.741 56.4828 125.88 56.2981 126.163 56.2321C126.981 56.0738 127.634 55.889 128.142 55.6647C128.643 55.447 128.895 55.0842 128.895 54.5828V41.7837C128.895 40.8403 128.729 40.1674 128.4 39.7583C128.07 39.3492 127.358 39.0985 126.256 39.0062C125.846 38.9468 125.642 38.7225 125.642 38.3465C125.642 38.1881 125.675 37.9836 125.735 37.7329C126.143 37.7329 126.717 37.7065 127.45 37.6603C128.189 37.6142 128.795 37.5614 129.264 37.4954C129.996 37.3701 130.642 37.238 131.217 37.0929C131.784 36.9544 132.2 36.8818 132.457 36.8818C132.899 36.8818 133.124 37.1193 133.124 37.5877C133.124 38.0297 133.077 38.551 132.985 39.1645C132.893 39.7781 132.847 40.583 132.847 41.5858V54.5894C132.847 55.0908 133.09 55.4536 133.579 55.6714C134.067 55.889 134.747 56.0803 135.624 56.2387C135.875 56.3047 136 56.4894 136 56.8061C136 56.8985 135.993 57.0436 135.973 57.2283C135.961 57.4196 135.934 57.5252 135.901 57.5582C135.809 57.5582 135.597 57.545 135.268 57.512C134.937 57.479 134.536 57.4461 134.067 57.4196C133.598 57.3867 133.084 57.3669 132.53 57.3471C131.982 57.3207 131.435 57.3141 130.894 57.3141ZM128.142 29.0309C128.142 28.2788 128.4 27.6256 128.921 27.078C129.436 26.5304 130.089 26.2533 130.874 26.2533C131.626 26.2533 132.253 26.5304 132.754 27.078C133.255 27.6256 133.506 28.2788 133.506 29.0309C133.506 29.8489 133.255 30.5086 132.754 31.0101C132.253 31.5115 131.626 31.7622 130.874 31.7622C130.089 31.7622 129.436 31.5115 128.921 31.0101C128.4 30.5086 128.142 29.8489 128.142 29.0309Z" fill="white"/>
<path d="M52.4235 20.6785L18.5522 29.5586L14 62.1962L51.8034 69.3214L53.5583 67.461L55.0955 21.8132L52.4235 20.6785ZM32.7433 43.6309C34.9271 43.5255 36.9855 43.4199 38.9516 43.0768C39.7036 42.9448 40.4491 42.0674 41.1023 41.2955C41.2475 41.1239 41.3926 40.9524 41.5377 40.7941C41.6697 40.6489 41.7752 40.4642 41.894 40.2663C42.2833 39.6131 42.7649 38.7951 44.3614 39.1843L44.599 39.2437L43.3916 49.5093L43.2267 49.5621C42.4746 49.8127 41.8808 49.7996 41.4586 49.5291C41.0759 49.2784 40.845 48.8232 40.779 48.1833C40.5943 46.3491 39.5123 45.9994 37.8036 46.0324C35.9695 46.0655 34.1552 46.0588 32.2419 46.0522C31.503 46.0522 30.7576 46.0456 29.9988 46.0456L29.7877 47.7082C29.5963 49.2256 29.4116 50.6572 29.2599 52.1021C29.2203 52.4518 29.2269 52.8015 29.2269 53.1709C29.2269 53.6261 29.2335 54.1011 29.1543 54.563C28.6595 57.4922 29.2137 58.3763 31.8329 58.8446C34.6236 59.3461 37.6914 59.61 40.944 59.6231H40.9638C42.7649 59.6231 43.8139 58.2707 44.9156 56.839C45.0541 56.6609 45.1927 56.4762 45.3379 56.298C45.4962 56.1001 45.6282 55.8363 45.7667 55.5525C46.2088 54.6751 46.8091 53.4744 48.7554 53.923L49.0061 53.9823L48.9665 54.233C48.5508 56.8259 47.5282 59.1614 46.4462 61.6355C46.2615 62.0576 46.0767 62.4798 45.892 62.9153L45.8129 63.0935L45.615 63.0802C40.3238 62.658 34.993 61.8465 29.8338 61.0614C26.258 60.5138 22.5569 59.9531 18.9085 59.5243C18.3609 59.4583 17.8859 58.9767 17.4636 58.0464L17.2921 57.6769L18.5588 57.611C19.1988 57.578 19.8387 57.545 20.4721 57.5186C22.6294 57.446 22.9923 57.1425 23.2431 55.1831C23.5597 52.709 23.817 50.1823 24.0611 47.7412C24.1535 46.8241 24.2458 45.9071 24.3448 44.9901C24.424 44.2181 24.4899 43.4396 24.5559 42.6678C24.6944 41.0382 24.833 39.3558 25.1299 37.7263C25.4334 36.0175 25.3608 35.0477 24.8858 34.5793C24.4174 34.1108 23.4673 34.0449 21.8048 34.3549C21.6069 34.3946 21.4221 34.3682 21.1912 34.3352C21.0725 34.322 20.9406 34.3021 20.7756 34.289L20.3534 34.2494L20.5644 33.88C20.6437 33.7414 20.703 33.5963 20.7624 33.4643C20.9075 33.141 21.0263 32.8574 21.2967 32.7914C29.2994 30.8122 37.2362 28.8791 45.6479 26.8339L49.0192 26.0158L48.2276 34.797L46.3208 35.1665L44.3351 30.5615C41.6697 30.1326 36.3125 30.9969 31.4305 32.6396L30.1572 43.7696C31.0478 43.7168 31.9121 43.6706 32.7433 43.6309Z" fill="white"/>
</svg>