<?xml version="1.0" encoding="utf-8"?>
<!-- Generator: Adobe Illustrator 26.5.0, SVG Export Plug-In . SVG Version: 6.00 Build 0)  -->
<svg xmlns="http://www.w3.org/2000/svg" xmlns:xlink="http://www.w3.org/1999/xlink" version="1.1" id="Слой_1" x="0px" y="0px" viewBox="0 0 2247.9 497.4" style="enable-background:new 0 0 2247.9 497.4;" xml:space="preserve" width="196" height="196">
<style type="text/css">
	.st0{fill:#FFFFFF;}
	.st1{fill:#1AFF6B;}
</style>
<path class="st0" d="M1892,377.7l92-124.6c1.9-2.5,1.9-6,0-8.6l-92-125c-3.5-4.7-0.1-11.4,5.6-11.4h57.9c2.2,0,4.3,1,5.6,2.8  l78.9,104.9c1.3,1.8,3.4,2.8,5.6,2.8h28.6c2.2,0,4.3-1,5.6-2.8l78.9-104.9c1.3-1.8,3.4-2.8,5.6-2.8h57.9c5.8,0,9.1,6.7,5.6,11.4  l-92,125c-1.8,2.5-1.8,6,0,8.6l92,124.6c3.5,4.7,0.2,11.4-5.6,11.4h-58.2c-2.2,0-4.3-1-5.6-2.8l-78.5-104.4  c-1.3-1.8-3.4-2.8-5.5-2.8h-28.6c-2.2,0-4.3,1-5.5,2.8l-78.4,104.4c-1.3,1.8-3.4,2.8-5.6,2.8h-58.2  C1891.8,389.2,1888.6,382.5,1892,377.7z"/>
<path class="st0" d="M1777,382.1V115.3c0-3.9,3.2-7.1,7-7.1h47.8c3.9,0,7,3.2,7,7.1v266.7c0,3.9-3.2,7.1-7,7.1H1784  C1780.2,389.2,1777,386,1777,382.1z"/>
<path class="st0" d="M1505,284.7l-79.5-72c-4.6-3.7-11.3-0.3-11.3,5.6V382c0,3.9-3.2,7.1-7,7.1h-47.8c-3.9,0-7-3.2-7-7.1V115.3  c0-3.9,3.2-7.1,7-7.1h51.5c1.7,0,3.2,0.6,4.5,1.7l116.7,119.7h1.9l116.7-119.7c1.3-1.1,2.9-1.7,4.5-1.7h51.5c3.9,0,7,3.2,7,7.1  v266.7c0,3.9-3.2,7.1-7,7.1h-47.8c-3.9,0-7-3.2-7-7.1V218.4c0-5.9-6.7-9.3-11.4-5.6l-79.1,72c-1.3,1-2.8,1.5-4.3,1.5h-47.7  C1507.7,286.2,1506.2,285.7,1505,284.7z"/>
<path class="st0" d="M981.6,379.1l118.1-266.7c1.1-2.5,3.6-4.2,6.4-4.2h86.4c2.8,0,5.3,1.7,6.4,4.2L1317,379.1  c2.1,4.7-1.3,10.1-6.4,10.1h-51.8c-2.8,0-5.3-1.7-6.4-4.2l-22.6-50.9c-1.1-2.5-3.6-4.2-6.4-4.2h-148.2c-2.8,0-5.3,1.7-6.4,4.2  l-22.6,50.9c-1.1,2.5-3.6,4.2-6.4,4.2H988C982.9,389.2,979.5,383.8,981.6,379.1z M1103.9,278.7h90.8c5.1,0,8.5-5.3,6.4-10.1  l-49.3-111.4h-5l-49.3,111.4C1095.4,273.4,1098.8,278.7,1103.9,278.7z"/>
<path class="st0" d="M703.8,337.2c2,1.6,4.6,2.5,7.2,2.5l120.1,0.4h46.3c3.9,0,7-3.2,7-7.1v-44.2c0-3.9-3.2-7.1-7-7.1h-46.3h-51  c-3.9,0-7-3.2-7-7.1v-36.8c0-3.9,3.2-7.1,7-7.1h159.1c3.9,0,7,3.2,7,7.1V384c0,3.9-3.2,7.1-7,7.1H693.1c-2.5,0-5-0.8-6.9-2.3  l-54.7-40.2c-3-2.2-4.8-5.7-4.8-9.5V162.9c0-3.5,1.6-6.9,4.3-9.1l55-44.9c2.1-1.7,4.7-2.6,7.4-2.6h245.8c3.9,0,7,3.2,7,7.1v36.8  c0,3.9-3.2,7.1-7,7.1H711.2c-2.8,0-5.5,1-7.6,2.8l-21.3,18c-2.6,2.2-4.2,5.5-4.2,9v124.2c0,3.6,1.7,7,4.5,9.2L703.8,337.2z"/>
<path class="st1" d="M386,152.3c0,0,13.8,20,27.2,50.3c2.7,6.2,8.9,10.3,15.7,10.3h51.8c10.3,0,18.6-8.3,18.6-18.6v-51.7  c0-5.1-2.1-9.9-5.7-13.4L393.4,33.2c-3.4-3.4-8-5.2-12.8-5.2h-231c-10.3,0-20.2,4.1-27.4,11.4l-91.8,91.8  c-7.3,7.3-11.4,17.1-11.4,27.4v182.2c0,10.3,4.1,20.1,11.4,27.4l89.9,89.9c7.3,7.3,17.1,11.4,27.4,11.4h170.3h20.7h42.1  c4.8,0,9.4-1.9,12.8-5.1l100-95.3c3.7-3.5,5.8-8.4,5.8-13.4v-52.4c0-10.3-8.3-18.6-18.6-18.6h-26.1c-9.5,0-17.3,7.7-17.1,17.2  c0.1,3.8,0.1,7.7-0.1,11.7c-0.5,10.9-5.1,21.2-13.1,28.6c-9.5,8.8-24.9,17.4-47.4,13.6c-4.5-0.8-8.4-3.3-11-7  c-9.5-13.6-37.4-49.1-72-50.6c0,0-17.9-0.6-39.7-0.3c-21.9-0.3-39.8,0.3-39.8,0.3c-31.7,1.4-57.7,31.2-69.2,46.7  c-4.9,6.7-12.5,11.2-20.8,11.7c-22.8,1.4-37.4-10.4-45.2-19.5c-4.6-5.3-7.5-12-8-19.1c-5.7-83.3,51.1-165.4,51.1-165.4  c12-14.6,46.5-11.5,62.6-9.9c4.2,0.4,8,3.1,9.9,6.9c4,8.5,8.8,15.1,12.1,19.3c2.4,2.9,6.3,6.6,10,7.5c14.7,3.6,27.2,4.8,37.2,4.9  c10-0.1,22.5-1.2,37.2-4.9c3.7-0.9,7.6-4.6,10-7.5c3.3-4.1,8-10.8,12.1-19.3c1.9-3.9,5.6-6.5,9.9-6.9  C339.5,140.7,374,137.7,386,152.3z"/>
<path class="st1" d="M176.3,239.3c3.8-0.1,7.5,0.3,11.3-0.3c4.9-0.9,8-4.5,7.9-9.8c-0.1-4.7-3.2-8.2-7.9-9  c-3.8-0.7-7.5-0.2-11.3-0.3c-4.6-0.1-5.6-1-5.6-5.7c-0.1-2.9,0-5.8,0-8.6c0-6.6-4.2-10.8-10.9-10.9h-0.3c-4.9,0.3-8.6,5.1-8.6,12.4  c0,2.6,0.1,5.3,0,7.9c-0.1,3.5-1.4,4.7-4.9,4.9c-3.3,0.1-6.5-0.1-9.8,0.1c-6.4,0.1-10.3,3.9-10.3,9.7c0,5.8,4,9.6,10.1,9.8  c3.2,0.1,6.3-0.1,9.4,0c3.9,0.1,5.1,1.4,5.3,5.3c0.2,3.6-0.3,7.3,0.3,10.9c1,5.4,5.3,9.6,10.2,9c5.3-0.7,8.8-3.4,9.4-10.1  c0.3-3.1,0-6.3,0.1-9.4C170.8,240.2,171.8,239.4,176.3,239.3z"/>
<path class="st1" d="M355.3,242.6c0,7.7,6.3,14.1,14,14.1c7.7,0,14-6.3,14-14.1c0-7.7-6.3-14-14-14  C361.6,228.5,355.3,234.8,355.3,242.6z"/>
<path class="st1" d="M324.4,211c0,7.7,6.3,14.1,14,14.1c7.7,0,14-6.3,14-14.1c0-7.7-6.3-14-14-14C330.7,196.9,324.4,203.2,324.4,211  z"/>
</svg>
