<?xml version="1.0" encoding="utf-8"?>
<svg xmlns="http://www.w3.org/2000/svg" fill="none" height="90" viewBox="0 0 150 90" width="150">
<path d="M120.871 53.0033C121.136 52.03 121.401 51.1453 121.667 50.172C121.136 50.7029 120.605 51.2337 119.986 51.6761C118.393 52.8263 116.624 53.2687 114.677 52.9148C113.173 52.5609 112.112 51.5876 111.492 50.2605C111.404 50.172 111.404 49.9951 111.315 49.9066C111.315 49.9066 111.315 49.9066 111.227 49.8181C111.05 49.9951 110.873 50.172 110.607 50.2605C109.015 51.4992 107.245 52.5609 105.21 52.9148C104.414 53.0033 103.618 53.0917 102.91 52.9148C101.495 52.7378 100.61 51.7646 100.256 50.4375C100.256 50.2605 100.167 50.172 100.256 50.0836C99.6365 50.7029 98.9287 51.3222 98.3094 51.8531C97.6901 52.3839 97.0707 52.8263 96.186 52.9148C95.0358 53.0917 94.0626 52.3839 94.0626 51.1453C93.9741 50.0836 94.328 49.0219 94.5934 48.0486C95.3012 45.2174 96.0975 42.3862 96.8053 39.4665C96.8053 39.378 96.8053 39.2896 96.8053 39.2011C96.186 39.2011 95.6551 39.2011 95.0358 39.2011C95.4782 41.0591 94.6819 42.6516 93.9741 44.2442C92.2046 48.2256 90.0812 52.03 87.4269 55.4806C86.5422 56.5423 85.5689 57.5155 84.3303 58.2233C83.2686 58.7542 82.2069 58.9311 81.0567 58.5772C79.995 58.4003 79.4641 57.5155 79.7295 56.4538C79.9065 55.569 80.8797 54.8612 81.853 54.9497C82.3838 55.0382 82.8262 55.2151 83.2686 55.4806C83.4455 55.569 83.6225 55.746 83.8879 55.8345C84.5957 56.2768 84.7726 56.1884 85.3035 55.6575C86.1882 54.7728 86.3652 53.7111 86.1882 52.5609C85.6574 49.0219 85.1265 45.3944 84.2418 41.8553C84.1533 41.413 83.9764 40.9706 83.7109 40.5282C83.6225 40.3513 83.4455 40.1743 83.1801 39.9974C82.8262 41.413 82.3838 42.7401 82.0299 44.0672C81.5875 45.8367 81.0567 47.6062 80.6143 49.3758C80.5258 49.6412 80.5258 49.8181 80.5258 50.0836C80.5258 50.6144 80.9682 50.7914 81.3221 50.4375C81.676 50.172 81.9414 49.8181 82.2953 49.4642C82.4723 49.1988 82.6492 48.9334 82.9147 48.5795C83.1801 48.7564 83.357 48.9334 83.6225 49.1103C82.9147 50.349 82.1184 51.5876 80.9682 52.3839C79.995 53.0917 78.9333 53.2687 77.8716 53.0033C77.0753 52.8263 76.4559 52.207 76.4559 51.3222C76.4559 50.7914 76.5444 50.349 76.5444 49.8181C76.5444 49.7297 76.5444 49.5527 76.5444 49.4642C76.0136 50.172 75.4827 50.7914 74.9519 51.4992C74.3325 52.207 73.6247 52.7378 72.74 52.9148C70.7935 53.4456 68.7586 53.0033 68.0508 50.5259C67.6969 50.9683 67.343 51.3222 66.9891 51.7646C66.1928 52.5609 65.308 53.0917 64.2463 53.1802C62.2999 53.3572 61.4151 52.03 61.5921 50.2605C61.769 49.1988 62.0344 48.2256 62.2114 47.0754C61.946 47.6062 61.769 47.9602 61.5036 48.4025C60.6188 49.8181 59.6456 51.1453 58.1415 52.1185C56.7259 53.0033 55.3103 53.3572 53.6293 52.9148C53.1869 52.8263 52.833 52.5609 52.3906 52.3839C52.3021 52.6494 52.2137 53.0033 52.1252 53.3572C51.8598 54.3304 51.5943 55.3036 51.4174 56.2768C51.4174 56.3653 51.4174 56.4538 51.4174 56.4538C51.3289 57.5155 51.5943 57.8694 52.5676 57.9579C52.7445 57.9579 52.9215 57.9579 53.0984 58.0464C53.0984 58.3118 53.0984 58.4887 53.0984 58.7542C50.4441 58.7542 47.7014 58.7542 45.0471 58.7542C45.0471 58.4887 45.0471 58.3118 45.0471 58.0464C45.0471 58.0464 45.0471 58.0464 45.1356 58.0464C46.1973 58.0464 46.7282 57.427 46.9051 56.5423C47.436 54.5073 47.8784 52.4724 48.4092 50.5259C49.117 47.6947 49.8248 44.775 50.5326 41.9438V41.8553C50.7096 40.8821 50.4441 40.5282 49.4709 40.3513C49.3824 40.3513 49.2055 40.3513 49.117 40.2628C49.117 39.9974 49.117 39.8204 49.117 39.6435C51.3289 39.378 53.4523 39.1126 55.6642 38.7587C55.3988 39.7319 55.1334 40.6167 54.8679 41.5899C55.3988 41.0591 55.7527 40.5282 56.1951 39.9974C56.9029 39.2896 57.6991 38.6702 58.6724 38.4048C60.9727 37.7855 62.9192 39.1126 63.1846 41.5014C63.1846 41.8553 63.2731 42.2977 63.3616 42.6516C63.45 42.4747 63.45 42.2977 63.5385 42.1208C64.1579 39.555 64.8657 37.0777 65.485 34.5119C65.7504 33.4502 65.6619 32.9193 64.3348 32.8308C64.3348 32.8308 64.2463 32.8308 64.1579 32.8308C64.1579 32.6539 64.1579 32.3885 64.1579 32.2115C66.3697 31.8576 68.5816 31.5922 70.7935 31.2383C70.4396 32.5654 70.1742 33.8925 69.8203 35.1312C68.6701 39.6435 67.5199 44.0672 66.3697 48.5795C66.2813 48.9334 66.1928 49.3758 66.1928 49.7297C66.1928 49.9066 66.2813 50.172 66.4582 50.2605C66.6352 50.349 66.9006 50.2605 66.9891 50.0836C67.5199 49.5527 67.8738 49.0219 67.9623 48.2256C68.4047 44.5981 70.0857 41.6784 72.9169 39.378C73.8017 38.6702 74.6864 38.2278 75.8366 38.1394C77.4292 37.9624 78.4024 38.5817 78.8448 40.2628C79.0217 39.6435 79.1102 39.1126 79.2872 38.5817C80.6143 38.5817 81.8529 38.5817 83.1801 38.5817C83.7109 39.0241 84.3303 38.6702 84.8611 38.6702C85.4804 38.5817 86.0998 38.4933 86.7191 38.4048C87.6923 38.2278 87.8693 38.2278 88.1347 39.2896C88.5771 40.9706 88.931 42.5631 89.2849 44.2442C89.5503 45.5713 89.8158 46.8984 89.9927 48.1371C89.9927 48.2256 90.0812 48.4025 90.0812 48.491H90.1696C90.8775 46.8984 91.5853 45.2174 92.2931 43.6249C92.647 42.8286 92.3815 42.2977 91.7622 41.7669C91.0544 41.236 90.612 40.5282 90.8774 39.555C91.2314 38.3163 92.5585 37.697 93.8856 38.2278C94.0626 38.3163 94.2395 38.3163 94.4165 38.2278C96.3629 37.7855 97.6016 36.5468 98.6633 34.9543C98.9287 34.5119 99.1941 34.0695 99.4596 33.6271C99.8135 32.9193 99.8135 32.9193 100.698 33.0963C100.344 34.6888 99.902 36.3699 99.4596 38.0509C100.256 38.0509 101.052 38.0509 101.937 38.0509C101.848 38.4048 101.76 38.7587 101.671 39.1126C100.964 39.1126 100.256 39.1126 99.548 39.1126C99.2826 39.1126 99.1057 39.2011 99.0172 39.4665C98.2209 42.4747 97.4246 45.5713 96.7168 48.5795C96.6284 49.0219 96.5399 49.4642 96.5399 49.8181C96.5399 50.6144 97.1592 51.0568 97.867 50.6144C98.7518 50.172 99.2826 49.3758 99.902 48.5795C99.9904 48.491 99.9904 48.2256 99.9904 48.1371C100.344 44.0672 102.114 40.8821 105.741 38.9356C107.157 38.1394 108.661 37.8739 110.254 38.2278C112.112 38.5817 112.908 39.9974 112.377 41.8553C112.023 42.917 111.315 43.7133 110.342 44.4211C108.838 45.4828 107.157 46.1022 105.387 46.3676C104.768 46.4561 104.06 46.5445 103.441 46.633C103.176 46.633 102.999 46.7215 102.999 46.9869C102.822 47.7832 102.733 48.5795 102.91 49.4642C103.176 50.6144 104.326 51.4107 105.564 51.2337C106.715 51.0568 107.776 50.5259 108.75 49.9066C109.457 49.4642 110.077 48.9334 110.784 48.4025C111.05 48.2256 110.961 47.9601 110.961 47.7832C111.05 44.1557 112.731 41.3245 115.739 39.2896C117.243 38.3163 119.013 37.8739 120.782 38.2278C121.932 38.4933 122.906 39.0241 123.171 40.2628C123.436 41.3245 122.906 42.3862 121.932 42.6516C120.871 42.917 119.986 42.1208 120.251 41.0591C120.34 40.7052 120.517 40.3513 120.694 39.9974C120.871 39.555 120.782 39.2011 120.251 39.2011C119.72 39.1126 119.19 39.1126 118.747 39.2896C117.686 39.555 116.801 40.1743 116.181 41.0591C114.589 43.094 113.616 45.3059 113.704 47.9602C113.793 49.7297 115.031 51.1453 116.712 51.2337C117.332 51.2337 117.951 51.0568 118.482 50.7914C120.163 49.9066 121.313 48.5795 122.286 47.0754C122.552 46.633 122.64 46.0137 122.817 45.3944C123.79 41.8553 124.764 38.3163 125.737 34.8658C125.825 34.5119 125.825 34.2464 125.914 33.8925C125.914 33.4502 125.737 33.1847 125.294 33.1847C124.852 33.1847 124.498 33.1847 124.056 33.0963C123.79 33.0963 123.525 33.0963 123.171 33.0963C123.259 32.8308 123.259 32.6539 123.259 32.4769C123.259 32.3885 123.436 32.3 123.525 32.3C125.029 32.2115 126.533 31.9461 128.037 31.4152C128.303 31.3268 128.745 31.3268 129.099 31.3268C127.949 35.4851 126.799 39.6435 125.648 43.8018C125.648 43.8018 125.648 43.8018 125.737 43.8018C126.268 43.2709 126.799 42.7401 127.418 42.2092C128.922 40.7936 130.514 39.4665 132.372 38.6702C132.903 38.4048 133.434 38.3163 134.053 38.2278C135.027 38.1394 135.558 38.6702 135.469 39.6435C135.469 40.0858 135.292 40.5282 135.204 40.9706C134.407 43.7133 133.611 46.3676 132.815 49.1103C132.726 49.4642 132.638 49.9066 132.638 50.349C132.638 50.5259 132.815 50.7914 132.903 50.9683C132.992 51.0568 133.346 50.9683 133.523 50.8798C134.054 50.4375 134.584 49.9951 135.115 49.4642C135.204 49.3758 135.381 49.1988 135.469 49.1103C135.646 49.2873 135.823 49.3758 136 49.5527C134.761 50.9683 133.523 52.4724 131.576 52.8263C130.161 53.0917 129.453 52.2955 129.895 50.8798C130.691 48.0486 131.576 45.1289 132.461 42.2977C132.549 41.9438 132.638 41.5899 132.726 41.236C132.815 40.7052 132.549 40.3513 131.93 40.3513C131.665 40.3513 131.311 40.4397 131.045 40.6167C129.01 41.7669 127.241 43.2709 125.825 45.1289C125.383 45.6598 125.117 46.3676 124.941 46.9869C124.41 48.7564 123.879 50.6144 123.348 52.3839C123.348 52.4724 123.259 52.6494 123.259 52.7378C122.463 53.0033 121.667 53.0033 120.871 53.0033ZM58.5839 42.2977C58.5839 42.1208 58.4954 41.7669 58.4069 41.5014C58.1415 40.8821 57.6991 40.6167 57.0798 40.8821C56.7259 41.0591 56.372 41.3245 56.1066 41.5899C55.7527 42.0323 55.3988 42.5631 55.2218 43.094C54.2486 45.4828 53.6293 47.9601 53.0984 50.5259C53.0099 50.9683 53.0099 51.4107 53.4523 51.6761C53.8947 51.9415 54.3371 51.8531 54.691 51.6761C55.4873 51.2337 56.0181 50.5259 56.372 49.7297C56.9029 48.491 57.4337 47.2523 57.9646 46.0137C58.23 44.8635 58.4954 43.7133 58.5839 42.2977ZM72.6515 48.8449C72.6515 48.9334 72.6515 49.0219 72.6515 49.1103C72.6515 49.6412 72.74 50.2605 73.3593 50.5259C73.9786 50.7914 74.421 50.4375 74.8634 50.0836C74.9519 49.9951 75.0403 49.9066 75.1288 49.8181C75.3942 49.3758 75.7481 49.0219 76.0136 48.5795C77.0753 46.633 77.7831 44.5096 78.137 42.2977C78.2255 41.7669 78.2255 41.236 78.137 40.7936C77.96 40.0858 77.4292 39.8204 76.8098 40.1743C76.4559 40.3513 76.1905 40.5282 75.9251 40.7936C74.9519 41.9438 74.3325 43.3594 73.7132 44.775C73.0939 46.0137 72.6515 47.3408 72.6515 48.8449ZM103.352 45.8367C105.387 45.6598 107.245 45.2174 108.75 43.8903C109.723 43.094 110.342 42.1208 110.342 40.7936C110.342 39.9974 109.988 39.555 109.103 39.555C108.396 39.555 107.776 39.6435 107.157 40.0858C104.945 41.413 104.06 43.5364 103.352 45.8367Z" fill="white"/>
<path d="M22.6629 58.4887C20.8049 58.4003 18.9469 58.1348 17.2659 57.2501C14.5231 55.8345 13.4614 53.3572 14.2577 50.349C14.7886 48.491 15.8503 46.8984 17.0889 45.3944C18.8584 43.2709 21.0703 41.5899 23.3707 40.1743C23.5476 40.0858 23.6361 39.9089 23.6361 39.6435C23.6361 38.6702 23.6361 37.6085 23.6361 36.6353C23.6361 35.9275 23.8131 35.3082 24.5209 34.9543C25.1402 34.6003 25.7595 34.6888 26.3789 35.1312C27.3521 35.7505 28.4138 36.4583 29.4755 37.0777C29.6525 37.1661 29.8294 37.1661 30.0064 37.1661C32.0413 36.5468 34.0762 36.016 36.1996 35.7505C38.7654 35.4851 41.3312 35.5736 43.7201 36.6353C45.6665 37.4316 46.9937 38.8472 47.3476 40.9706C47.613 42.6516 47.1706 44.1557 46.3743 45.6598C45.0472 48.2256 43.0123 50.2605 40.7119 52.03C36.9074 54.9497 32.5721 56.9847 27.8829 57.9579C26.1134 58.3118 24.3439 58.5772 22.6629 58.4887ZM23.6361 46.2791C22.3975 47.5178 21.4242 49.5527 21.2473 51.1453C20.9819 52.9148 21.8666 54.3304 23.5476 54.7728C25.0517 55.2151 26.6443 55.1267 28.1484 54.6843C30.7142 54.065 33.0145 52.9148 35.1379 51.4107C37.2613 49.9066 39.1193 48.0486 40.2695 45.6598C40.8004 44.5981 41.1543 43.5364 41.0658 42.3862C40.9773 41.0591 40.2695 40.1743 39.0309 39.6435C37.2613 39.0241 35.4034 39.2896 33.5454 39.8204C33.6339 39.9089 33.7223 39.9089 33.7223 39.9974C35.3149 40.8821 36.9074 41.8553 38.5 42.7401C39.6502 43.3594 39.6502 44.8635 38.5885 45.4828C34.4301 48.0486 30.1833 50.6144 26.025 53.0917C25.1402 53.6226 23.99 53.1802 23.7246 52.207C23.6361 51.9415 23.6361 51.6761 23.6361 51.4107C23.6361 50.6144 23.6361 49.7297 23.6361 48.9334C23.6361 48.1371 23.6361 47.2523 23.6361 46.2791ZM25.4941 43.9788C25.4941 45.5713 25.4941 47.2523 25.4941 48.8449C25.4941 49.1103 25.4941 49.2873 25.5826 49.5527C25.7595 50.2605 26.5558 50.6144 27.1751 50.2605C29.2101 49.0219 31.245 47.7832 33.2799 46.5445C34.0762 46.1022 34.8725 45.5713 35.6688 45.1289C36.3766 44.6866 36.4651 43.7133 35.7573 43.271C32.926 41.5014 30.1833 39.7319 27.3521 38.0509C26.9097 37.7855 26.5558 37.6085 26.025 37.8739C25.6711 38.0509 25.4941 38.4933 25.4941 39.0241C25.4941 40.6167 25.4941 42.2977 25.4941 43.9788ZM33.7223 53.888C33.6338 53.888 33.6339 53.888 33.5454 53.9765C31.3335 54.9497 28.9446 55.569 26.5558 55.8345C24.6093 56.0114 22.8398 55.8345 21.0703 55.1267C19.6547 54.5073 18.6815 53.5341 18.3276 52.03C18.2391 51.8531 18.2391 51.5876 18.2391 51.4107H18.1506C18.0622 51.9415 17.9737 52.3839 17.9737 52.9148C17.8852 54.8612 18.9469 56.4538 20.8049 57.0731C21.6897 57.3386 22.6629 57.5155 23.5476 57.427C25.5826 57.427 27.529 56.8962 29.4755 56.0999C30.9796 55.4806 32.3952 54.7728 33.7223 53.888ZM31.5104 38.3163C32.0413 38.9356 32.5721 38.9356 33.1915 38.7587C35.4918 38.2278 37.7922 38.0509 40.0926 38.6702C41.5966 39.1126 42.8353 39.8204 43.6316 41.236L43.7201 41.3245C43.8085 40.5282 43.6316 39.8204 43.3662 39.2011C42.6584 37.7855 41.4197 37.0777 39.9156 36.8122C36.819 36.3699 34.1647 37.2546 31.5104 38.3163Z" fill="white"/>
</svg>