<?xml version="1.0" encoding="utf-8"?>
<svg xmlns="http://www.w3.org/2000/svg" fill="none" height="90" viewBox="0 0 150 90" width="150">
<path d="M14 69.9366C14 68.0578 14 66.2278 14 64.3734C54.6748 64.3734 95.3252 64.3734 136 64.3734C136 66.2278 136 68.0822 136 69.9366C95.3496 69.9366 54.6992 69.9366 14 69.9366Z" fill="white"/>
<path d="M109.55 39.7294C109.916 39.9246 110.234 40.071 110.551 40.2418C112.405 41.291 113.43 42.9502 113.967 44.951C114.284 46.1466 114.382 47.391 114.382 48.611C114.382 50.2214 114.406 51.8318 114.284 53.4178C114.04 56.3214 112.942 58.7858 110.282 60.323C108.892 61.1282 107.379 61.5186 105.793 61.543C102.084 61.6162 98.3507 61.5674 94.6419 61.5918C94.5687 61.5918 94.4955 61.5674 94.3735 61.5674C94.3735 47.9034 94.3735 34.2638 94.3735 20.5509C94.5443 20.5509 94.7151 20.5509 94.8859 20.5509C98.1067 20.5509 101.352 20.5265 104.573 20.5753C105.671 20.5997 106.793 20.7461 107.891 20.9901C110.917 21.6733 112.722 23.6253 113.357 26.6021C113.576 27.6025 113.674 28.6762 113.698 29.701C113.747 31.1406 113.747 32.5802 113.503 33.9954C113.064 36.4354 111.99 38.4362 109.721 39.6074C109.672 39.6318 109.648 39.6806 109.55 39.7294ZM100.815 43.0966C100.815 47.3666 100.815 51.539 100.815 55.687C100.888 55.7358 100.913 55.7602 100.937 55.7602C102.401 55.7358 103.89 55.809 105.354 55.687C106.5 55.6138 107.33 54.9306 107.647 53.7838C107.769 53.3446 107.867 52.881 107.867 52.4174C107.916 51.0266 107.94 49.6602 107.891 48.2694C107.867 47.391 107.794 46.4882 107.623 45.6098C107.354 44.341 106.549 43.5602 105.256 43.2918C103.816 42.9746 102.352 43.1454 100.815 43.0966ZM100.815 37.2406C102.011 37.2406 103.158 37.3138 104.28 37.2162C105.842 37.0942 106.793 36.1914 107.086 34.6298C107.452 32.7998 107.403 30.9454 107.135 29.1154C106.891 27.4561 105.939 26.5289 104.524 26.4313C103.328 26.3581 102.108 26.4069 100.888 26.4313C100.864 26.4313 100.84 26.4801 100.791 26.5045C100.815 30.067 100.815 33.6294 100.815 37.2406Z" fill="white"/>
<path d="M74.5851 41.5595C74.6583 41.6327 74.7071 41.6815 74.7803 41.7059C76.8543 42.6819 77.9035 44.4631 78.4403 46.5859C78.7819 47.9279 78.8307 49.3187 78.8307 50.7095C78.8551 53.1739 78.8551 55.6383 78.8795 58.1027C78.8795 59.2739 79.0991 60.3963 79.4651 61.5431C77.2935 61.5431 75.1463 61.5431 72.9747 61.5431C72.6331 60.5915 72.4867 59.5911 72.4623 58.5907C72.3891 55.7359 72.3647 52.8811 72.3647 50.0263C72.3647 49.0991 72.2915 48.1963 71.9987 47.3179C71.5595 45.9271 70.5835 45.1219 69.1439 44.9755C68.0703 44.8779 66.9967 44.8779 65.8499 44.8291C65.8499 50.4655 65.8499 55.9799 65.8499 61.5431C63.6783 61.5431 61.5799 61.5431 59.4571 61.5431C59.4571 47.8791 59.4571 34.2395 59.4571 20.5511C59.6279 20.5511 59.7743 20.5267 59.9451 20.5267C63.2391 20.5267 66.5575 20.5023 69.8515 20.5267C71.1447 20.5267 72.4135 20.7463 73.6335 21.1367C76.3419 22.0639 77.8547 23.9671 78.4159 26.6511C78.6355 27.6759 78.7087 28.7251 78.7575 29.7499C78.8063 31.1407 78.8063 32.5071 78.7575 33.8979C78.7087 35.3863 78.4647 36.8259 77.8547 38.1923C77.2447 39.5099 76.3175 40.5591 75.0487 41.2911C74.9023 41.3643 74.7559 41.4619 74.5851 41.5595ZM65.8987 39.0463C66.8991 39.0463 67.8995 39.0707 68.8755 39.0463C70.7543 39.0219 72.0963 37.9239 72.2183 36.0451C72.3403 33.8247 72.3403 31.5799 72.2183 29.3351C72.1451 27.7979 71.2423 26.3583 68.9487 26.3827C68.0703 26.4071 67.1919 26.3827 66.3135 26.3827C66.1671 26.3827 66.0207 26.4071 65.8987 26.4315C65.8987 30.6527 65.8987 34.8251 65.8987 39.0463Z" fill="white"/>
<path d="M37.2044 20.5509C37.3752 20.5509 37.5216 20.5509 37.668 20.5509C40.8644 20.5509 44.0608 20.5265 47.2328 20.5753C48.6724 20.5997 50.0876 20.8437 51.4296 21.4049C53.8452 22.4297 55.2604 24.3329 55.846 26.8217C56.1144 27.9685 56.2608 29.1642 56.2852 30.3598C56.3584 32.4582 56.334 34.5322 56.2852 36.6306C56.2608 37.997 56.0656 39.339 55.6508 40.6322C54.6748 43.5602 52.6496 45.2682 49.6728 45.9026C48.3064 46.1954 46.8912 46.2198 45.5004 46.2198C44.866 46.2198 44.2316 46.2198 43.5484 46.2198C43.5484 51.3682 43.5484 56.4434 43.5484 61.5674C41.4012 61.5674 39.3028 61.5674 37.1556 61.5674C37.2044 47.9034 37.2044 34.2638 37.2044 20.5509ZM43.6216 40.3638C44.6464 40.3638 45.6224 40.3638 46.5984 40.3638C46.7936 40.3638 46.9644 40.3638 47.1596 40.3394C48.6968 40.1442 49.4776 39.4854 49.7704 37.9482C49.8924 37.3626 49.9168 36.7526 49.9168 36.167C49.9412 34.3614 49.9412 32.5558 49.9168 30.7258C49.9168 30.1402 49.8924 29.579 49.8192 28.9934C49.624 27.3097 48.5992 26.3825 46.9156 26.3581C45.964 26.3581 45.0124 26.3581 44.0608 26.3581C43.9144 26.3581 43.768 26.3825 43.6216 26.4069C43.6216 31.0674 43.6216 35.679 43.6216 40.3638Z" fill="white"/>
<path d="M20.7344 49.3186C20.7344 50.319 20.71 51.295 20.7344 52.271C20.7588 52.881 20.8076 53.5154 20.9784 54.101C21.3932 55.6382 22.4912 56.3702 24.1504 56.2238C25.712 56.1018 26.5904 55.2722 26.8588 53.735C27.2248 51.661 26.8588 49.7334 25.712 47.9522C24.8824 46.6834 23.882 45.561 22.8084 44.4874C21.1492 42.8282 19.4656 41.1934 17.8796 39.461C16.1228 37.5334 14.9028 35.2886 14.488 32.6778C14.0976 30.2378 14.1952 27.8222 15.1224 25.5286C16.2936 22.625 18.514 20.9414 21.5396 20.3314C23.4184 19.941 25.3216 19.9654 27.2004 20.4778C30.104 21.283 31.9096 23.2106 32.8124 26.041C33.3736 27.8466 33.4468 29.701 33.3736 31.6042C31.3728 31.6042 29.3964 31.6042 27.3224 31.6042C27.3224 31.3358 27.3468 31.0674 27.3224 30.799C27.2736 29.9694 27.2736 29.1154 27.1028 28.3102C26.7612 26.6998 25.7364 25.9434 24.0528 25.919C22.0276 25.8702 21.1004 27.0902 20.832 28.725C20.4172 31.3114 21.2224 33.5562 22.8816 35.4594C24.0772 36.8502 25.4436 38.0702 26.7612 39.3146C28.152 40.6322 29.5428 41.9742 30.714 43.5114C32.1292 45.3658 32.9832 47.4398 33.3004 49.7334C33.5688 51.905 33.52 54.0522 32.8368 56.1506C31.7388 59.469 29.4452 61.3722 26.0048 61.8846C24.1748 62.153 22.3448 62.1042 20.588 61.5674C17.2208 60.5426 15.22 58.249 14.4636 54.8574C14.0488 53.0274 14.122 51.1974 14.1464 49.2942C16.318 49.3186 18.4896 49.3186 20.7344 49.3186Z" fill="white"/>
<path d="M135.902 20.5755C135.902 22.5031 135.902 24.4063 135.902 26.3583C132.194 26.3583 128.485 26.3583 124.752 26.3583C124.752 30.2135 124.752 33.9955 124.752 37.8263C127.704 37.8263 130.656 37.8263 133.633 37.8263C133.633 39.7783 133.633 41.6815 133.633 43.6335C130.681 43.6335 127.753 43.6335 124.776 43.6335C124.776 47.6839 124.776 51.6611 124.776 55.7359C128.485 55.7359 132.169 55.7359 135.902 55.7359C135.902 57.7123 135.902 59.6155 135.902 61.5431C130.046 61.5431 124.215 61.5431 118.334 61.5431C118.334 47.8791 118.334 34.2395 118.334 20.5755C124.166 20.5755 130.022 20.5755 135.902 20.5755Z" fill="white"/>
<path d="M89.5424 20.5755C89.5424 34.2151 89.5424 47.8547 89.5424 61.5431C87.4196 61.5431 85.3212 61.5431 83.1496 61.5431C83.1496 47.9035 83.1496 34.2639 83.1496 20.5755C85.2724 20.5755 87.3952 20.5755 89.5424 20.5755Z" fill="white"/>
</svg>