<?xml version="1.0" encoding="utf-8"?>
<svg xmlns="http://www.w3.org/2000/svg" fill="none" height="90" viewBox="0 0 150 90" width="150">
<path d="M31.3131 27.321C40.8709 27.2309 48.7155 35.0755 48.8057 44.5431C48.8959 54.1911 41.0513 62.1259 31.4934 62.1259C21.8454 62.2161 14.0008 54.4617 14.0008 44.9038C13.9106 35.2558 21.5749 27.4112 31.3131 27.321ZM31.4033 51.9369C32.4853 53.019 33.2066 53.9206 34.1083 54.7322C34.9198 55.6338 35.8215 56.4454 36.7232 57.347C37.715 58.3389 38.6167 58.3389 39.6086 57.347C41.0513 55.9043 42.5841 54.4617 43.9366 52.9288C45.199 51.5763 45.199 50.9451 43.9366 49.6827C42.2234 47.9695 40.5102 46.3465 38.6167 44.5431C40.6004 42.6496 42.3136 40.9364 44.0268 39.2232C45.1088 38.1412 45.199 37.1494 44.0268 36.0673C42.5841 34.7148 41.2316 33.2721 39.8791 31.9196C38.5265 30.5671 37.715 30.5671 36.3625 31.9196C34.6493 33.6328 33.0263 35.346 31.4934 36.969C31.1327 36.7887 31.0426 36.7887 31.0426 36.6985C29.5999 35.2558 28.1572 33.9033 26.8047 32.4606C24.821 30.4769 23.0176 30.7474 21.3946 33.0016C20.7634 33.9033 19.9519 34.805 19.0502 35.5263C17.5173 36.8788 17.4272 37.8707 18.8699 39.3134C20.4929 41.0266 22.1159 42.6496 24.0095 44.5431C22.2061 46.2563 20.5831 47.7892 18.8699 49.4122C17.5173 50.6746 17.5173 51.6664 18.7797 52.9288C20.1322 54.2813 21.4847 55.6338 22.8373 56.9864C24.0095 58.1585 25.1816 58.1585 26.444 56.9864C27.9769 55.5437 29.5999 53.8305 31.4033 51.9369Z" fill="white"/>
<path d="M135.908 47.8795V52.0272C133.203 52.0272 130.678 51.9371 128.064 52.0272C127.162 52.0272 125.809 51.396 125.539 52.9289C125.539 53.0191 127.162 53.5601 128.064 53.6502C129.687 53.7404 131.4 53.6502 133.113 53.7404C134.736 53.7404 135.728 54.6421 135.908 56.2651C135.998 57.5275 135.908 58.7898 135.728 60.0522C135.457 61.6752 134.375 62.4867 132.752 62.4867H107.145V47.6991H118.506C118.776 47.6991 119.227 48.2402 119.227 48.5107C119.768 51.3059 119.407 51.7567 116.522 51.7567H112.374C111.292 51.7567 110.932 52.2076 111.292 53.3797H115.711C116.883 53.2896 116.883 54.0109 116.883 54.9126C116.883 55.7241 117.063 56.6258 115.711 56.6258C114.629 56.5356 113.456 56.6258 112.374 56.6258C111.292 56.6258 110.932 57.0766 111.292 58.1587C111.653 58.1587 112.104 58.2488 112.555 58.2488H129.777C130.137 58.2488 130.498 58.339 130.769 58.1587C131.129 57.9783 131.4 57.5275 131.67 57.257C131.31 57.0766 131.039 56.6258 130.678 56.6258C128.875 56.5356 126.982 56.6258 125.178 56.6258C122.112 56.6258 121.211 55.7241 121.211 52.5682C121.211 49.1418 122.293 47.6991 125.178 47.609C128.695 47.8795 132.211 47.8795 135.908 47.8795Z" fill="white"/>
<path d="M99.9311 37.961C100.743 39.4037 101.554 40.7562 102.366 42.1989C103.087 43.5514 102.816 43.5514 101.374 43.9121C98.0375 44.6334 96.5047 42.7399 95.3325 40.125C94.8816 39.2233 94.3406 38.2315 93.0783 38.5922C92.6274 38.6823 92.2668 39.2233 91.9061 39.584C91.7257 39.7643 91.9061 40.125 91.9061 40.3955C91.9061 44.0023 91.3651 44.4531 87.7583 43.7317C87.3977 43.6416 86.7665 42.8301 86.7665 42.3792C86.6763 37.8708 86.7665 33.2722 86.6763 28.6737C86.6763 27.6818 87.1272 27.3211 88.119 27.3211H97.1358C99.5704 27.3211 101.284 28.4933 102.185 30.7475C103.087 33.0919 102.636 35.2559 100.833 37.0593C100.562 37.42 100.292 37.6905 99.9311 37.961ZM91.7257 34.7149C93.4389 34.7149 94.7013 34.8953 95.9637 34.6248C96.5948 34.5346 97.3162 33.7231 97.4063 33.1821C97.4965 32.6411 96.9555 31.559 96.5948 31.4689C95.1521 31.1984 93.6193 31.1082 92.2668 31.4689C91.9061 31.559 91.9061 33.4526 91.7257 34.7149Z" fill="white"/>
<path d="M105.251 48.15V58.7898C105.251 63.2081 105.161 63.2982 100.292 62.4867V56.6258C98.7589 57.4373 98.5786 59.421 96.5047 59.421C94.3407 59.421 94.1603 57.4373 92.7176 56.4454V61.3145C92.7176 62.2162 92.4471 62.667 91.4553 62.5769C90.2831 62.4867 89.1109 62.5769 87.8486 62.5769V47.8795C90.1929 47.5188 92.2668 47.4286 93.6193 50.0435C94.3407 51.396 95.4227 52.5682 96.5047 54.0109C97.5867 52.5682 98.6687 51.4862 99.2999 50.1337C100.562 47.7893 102.546 47.5188 105.251 48.15Z" fill="white"/>
<path d="M117.514 35.2558C117.875 36.7887 118.506 38.4117 118.416 39.9446C118.325 42.289 116.612 43.7317 114.178 43.8218C111.292 43.912 108.497 43.8218 105.612 43.8218C104.53 43.8218 104.079 43.371 104.079 42.289V28.5834C104.079 27.5915 104.44 27.1407 105.431 27.1407C108.317 27.1407 111.202 27.0505 114.088 27.2309C117.243 27.4112 118.866 30.4769 117.604 33.6328C117.424 34.1738 117.063 34.6247 116.793 35.0755C117.153 35.2558 117.334 35.2558 117.514 35.2558ZM109.038 40.3053C110.21 40.3053 111.473 40.3954 112.735 40.2151C113.186 40.1249 113.817 39.4938 113.997 38.9527C114.088 38.5019 113.637 37.5101 113.276 37.5101C111.923 37.2395 110.571 37.1494 109.218 37.4199C108.948 37.4199 108.948 39.1331 108.858 40.1249C108.858 40.1249 108.948 40.2151 109.038 40.3053ZM108.858 34.264C110.21 34.264 111.473 34.4443 112.645 34.1738C113.186 34.0837 113.997 33.182 113.997 32.641C113.997 32.1 113.186 31.2884 112.555 31.1983C111.382 30.9278 110.12 31.1081 108.858 31.1081V34.264Z" fill="white"/>
<path d="M84.9632 34.0837V39.1331C84.873 42.1988 83.3402 43.7317 80.2745 43.8218C78.0202 43.912 75.6759 43.912 73.4217 43.8218C70.5363 43.7317 69.0936 42.289 69.0034 39.4036C68.9133 35.7969 68.9133 32.1901 69.0034 28.4932C69.0034 28.0424 69.7248 27.6817 70.0854 27.2309C70.1756 27.1407 70.2658 27.2309 70.4461 27.2309C75.0447 27.3211 74.143 26.6899 74.2332 30.8376C74.2332 33.0918 74.3234 35.346 74.2332 37.5101C74.2332 38.5921 74.684 38.9528 75.6759 38.9528C80.545 38.8626 79.7334 39.4938 79.7334 35.0755V28.5834C79.7334 27.5916 80.0941 27.1407 81.086 27.2309C85.7747 27.3211 84.7829 26.78 84.9632 30.8376C85.0534 32.0098 85.0534 33.0918 84.9632 34.0837Z" fill="white"/>
<path d="M127.613 43.9119C123.014 43.9119 119.407 40.1249 119.407 35.5263C119.407 30.9277 123.194 27.2308 127.793 27.321C132.392 27.4112 136.089 31.108 135.998 35.7066C135.908 40.3052 132.121 43.9119 127.613 43.9119ZM129.957 35.6165C130.588 34.8951 131.129 34.2639 131.67 33.6328C130.528 32.13 129.206 31.9797 127.703 33.1819C126.08 31.9797 124.757 32.16 123.736 33.7229C124.277 34.3541 124.818 34.8951 125.359 35.5263C124.096 37.1493 124.246 38.4718 125.809 39.4937C126.441 38.9527 127.072 38.4117 127.703 37.8707C128.424 38.5018 128.965 39.0429 129.596 39.5839C130.408 38.8625 131.039 38.2313 131.76 37.6002C131.039 36.8788 130.498 36.2476 129.957 35.6165Z" fill="white"/>
<path d="M65.2163 57.888C64.0441 57.1667 62.8719 56.8962 62.6014 56.265C62.0604 54.3715 62.5112 53.9206 64.4949 53.9206C65.577 53.9206 66.7491 54.0108 67.8312 53.9206C69.0033 53.8305 69.5444 54.2813 69.4542 55.4535V57.1667C69.5444 60.6832 68.0115 62.4866 64.4949 62.7571C62.4211 62.9375 60.3472 62.8473 58.2733 62.667C56.47 62.4866 55.0273 61.5849 54.0354 59.9619C51.3304 55.2732 53.3141 48.24 60.4374 47.9695C62.7817 47.8794 65.1261 47.9695 67.4705 47.8794C69.1837 47.7892 68.9132 48.9614 69.0033 49.9532C69.0033 51.0353 69.0935 51.9369 67.5607 51.8468C65.3065 51.7566 63.1424 51.8468 60.8882 51.8468C58.8143 51.9369 57.3717 53.2895 57.4618 55.3633C57.4618 57.347 58.634 58.6094 60.798 58.6996C61.8801 58.7897 63.0522 58.7897 64.1343 58.6094C64.6753 58.6995 65.0359 58.0684 65.2163 57.888Z" fill="white"/>
<path d="M86.1354 62.667H81.627C81.2663 62.667 80.7253 62.3965 80.7253 62.2162C80.3646 60.503 79.0121 60.9538 77.9301 60.9538C76.8481 60.9538 75.6759 60.6833 75.3152 62.2162C75.2251 62.3965 74.8644 62.667 74.5939 62.667C73.1512 62.7572 71.7085 62.667 70.0855 62.667C70.2658 62.0358 70.356 61.585 70.4461 61.1342C71.8888 57.0766 73.4217 53.1092 74.8644 49.0516C75.2251 48.1499 75.6759 47.7893 76.6677 47.7893C79.3127 47.7893 81.116 49.0216 82.0778 51.4862C83.25 54.5519 84.4222 57.6176 85.5042 60.6833C85.7747 61.3145 85.8649 61.8555 86.1354 62.667ZM78.0203 52.2977C77.3891 54.1912 76.9382 55.7241 76.3972 57.2569H79.5531C79.1023 55.6339 78.6514 54.1912 78.0203 52.2977Z" fill="white"/>
<path d="M67.2902 27.4111C67.2902 28.8538 67.3803 30.2063 67.2 31.4687C67.2 31.8294 66.4787 32.3704 66.0278 32.3704C63.9239 32.5507 62.8719 33.6928 62.8719 35.7968V42.4692C62.8719 43.4611 62.5113 43.9119 61.5194 43.8217C56.9208 43.7316 57.8225 44.3627 57.8225 40.3052C57.8225 38.2313 57.7323 36.0673 57.8225 33.9934C57.8225 32.8212 57.552 32.2802 56.1995 32.2802C53.1338 32.3704 53.4043 32.731 53.4043 29.3948C53.4043 27.892 54.1256 27.1406 55.5683 27.1406H65.3065C65.8475 27.321 66.4787 27.321 67.2902 27.4111Z" fill="white"/>
</svg>